<svg width="16" height="16" viewBox="0 0 16 16" fill="none" xmlns="http://www.w3.org/2000/svg">
<path d="M6.00016 14.6668H10.0002C13.3335 14.6668 14.6668 13.3335 14.6668 10.0002V6.00016C14.6668 2.66683 13.3335 1.3335 10.0002 1.3335H6.00016C2.66683 1.3335 1.3335 2.66683 1.3335 6.00016V10.0002C1.3335 13.3335 2.66683 14.6668 6.00016 14.6668Z" stroke="#6B7280" stroke-linecap="round" stroke-linejoin="round"/>
<path d="M4.6665 5.5C5.33317 6.16667 6.41984 6.16667 7.09317 5.5" stroke="#6B7280" stroke-miterlimit="10" stroke-linecap="round" stroke-linejoin="round"/>
<path d="M8.90674 5.5C9.5734 6.16667 10.6601 6.16667 11.3334 5.5" stroke="#6B7280" stroke-miterlimit="10" stroke-linecap="round" stroke-linejoin="round"/>
<path d="M5.6 8.6665H10.4C10.7333 8.6665 11 8.93317 11 9.2665C11 10.9265 9.66 12.2665 8 12.2665C6.34 12.2665 5 10.9265 5 9.2665C5 8.93317 5.26667 8.6665 5.6 8.6665Z" stroke="#6B7280" stroke-miterlimit="10" stroke-linecap="round" stroke-linejoin="round"/>
</svg>
