<svg width="131" height="130" viewBox="0 0 131 130" fill="none" xmlns="http://www.w3.org/2000/svg">
<path d="M116.928 51.9711L118.175 51.4162C118.591 51.2775 118.591 50.7226 118.175 50.5838L116.928 50.0289C115.403 49.3353 114.155 48.0867 113.462 46.5607L112.907 45.3121C112.769 44.896 112.214 44.896 112.076 45.3121L111.521 46.5607C110.828 48.0867 109.58 49.3353 108.055 50.0289L106.808 50.5838C106.392 50.7226 106.392 51.2775 106.808 51.4162L108.055 51.9711C109.58 52.6648 110.828 53.9133 111.521 55.4393L112.076 56.6879C112.214 57.1041 112.769 57.1041 112.907 56.6879L113.462 55.4393C114.016 53.9133 115.264 52.6648 116.928 51.9711Z" fill="#D6DCE8"/>
<path d="M112.531 79.6474L113.363 79.2312C113.64 79.0925 113.64 78.815 113.363 78.6763L112.531 78.3989C111.422 77.9827 110.59 77.1503 110.174 76.0405L109.759 75.2081C109.62 74.9306 109.343 74.9306 109.204 75.2081L108.927 76.0405C108.372 77.1503 107.541 77.9827 106.57 78.3989L105.6 78.815C105.461 78.815 105.461 79.2312 105.6 79.2312L106.431 79.6474C107.541 80.0636 108.372 80.896 108.927 82.0058L109.343 82.8382C109.481 83.1156 109.759 83.1156 109.897 82.8382L110.174 82.0058C110.59 80.896 111.422 80.0636 112.531 79.6474Z" fill="#D6DCE8"/>
<path d="M31.9276 93.9711L33.1752 93.4162C33.5911 93.2775 33.5911 92.7226 33.1752 92.5838L31.9276 92.0289C30.4026 91.3353 29.155 90.0867 28.4618 88.5607L27.9073 87.3121C27.7687 86.896 27.2142 86.896 27.0755 87.3121L26.521 88.5607C25.8279 90.0867 24.5802 91.3353 23.0553 92.0289L21.8076 92.5838C21.3918 92.7226 21.3918 93.2775 21.8076 93.4162L23.0553 93.9711C24.5802 94.6648 25.8279 95.9133 26.521 97.4393L27.0755 98.6879C27.2142 99.1041 27.7687 99.1041 27.9073 98.6879L28.4618 97.4393C29.0163 95.9133 30.264 94.6648 31.9276 93.9711Z" fill="#D6DCE8"/>
<path d="M29.3275 29.9404L30.1593 29.5242C30.4366 29.3855 30.4366 29.108 30.1593 28.9693L29.3275 28.6918C28.2185 28.2756 27.3867 27.4433 26.9708 26.3334L26.555 25.5011C26.4163 25.2236 26.1391 25.2236 26.0004 25.5011L25.7232 26.3334C25.1687 27.4433 24.3369 28.2756 23.3665 28.6918L22.3961 29.108C22.2575 29.108 22.2575 29.5242 22.3961 29.5242L23.2279 29.9404C24.3369 30.3566 25.1687 31.1889 25.7232 32.2988L26.1391 33.1311C26.2777 33.4086 26.555 33.4086 26.6936 33.1311L26.9708 32.2988C27.3867 31.1889 28.2185 30.3566 29.3275 29.9404Z" fill="#D6DCE8"/>
<path d="M40.0016 20.1494L40.6947 19.872C40.8333 19.7332 40.8333 19.5945 40.6947 19.4558L40.0016 19.1783C39.1698 18.9009 38.6153 18.2072 38.1994 17.3748L37.9221 16.6812C37.7835 16.5425 37.6449 16.5425 37.5062 16.6812L37.229 17.3748C36.9517 18.2072 36.2586 18.7621 35.4268 19.1783L35.0109 19.4558C34.7337 19.5945 34.7337 19.872 35.0109 19.872L35.7041 20.1494C36.5358 20.4269 37.0904 21.1205 37.5062 21.9529L37.7835 22.6465C37.9221 22.7853 38.0608 22.7853 38.1994 22.6465L38.4766 21.9529C38.6153 21.1205 39.3084 20.4269 40.0016 20.1494Z" fill="#D6DCE8"/>
<path d="M33.2271 121.225C32.9212 121.225 32.6153 121.123 32.3094 120.918C31.4937 120.408 31.1878 119.286 31.6976 118.469C32.2075 117.653 33.2271 117.347 34.0429 117.755C34.0429 117.755 34.1448 117.755 34.1448 117.857C34.9606 118.367 35.2665 119.49 34.7566 120.306C34.3488 120.918 33.8389 121.225 33.2271 121.225Z" fill="#D6DCE8"/>
<path d="M48.2167 127.653C48.0127 127.653 47.9108 127.653 47.7068 127.551C45.7694 126.939 43.7301 126.326 41.7927 125.612C40.875 125.204 40.4671 124.184 40.773 123.265C41.1809 122.347 42.2006 121.939 43.1183 122.245C44.9537 122.959 46.7891 123.571 48.7265 124.082C49.6442 124.388 50.256 125.306 49.9501 126.326C49.6442 127.143 48.9304 127.653 48.2167 127.653Z" fill="#D6DCE8"/>
<path d="M65.4489 130C63.7154 130 61.88 129.898 60.0446 129.796C59.0249 129.694 58.3112 128.878 58.4131 127.857C58.5151 126.837 59.3308 126.123 60.3505 126.225C61.982 126.327 63.7154 126.429 65.4489 126.429C99.3021 126.429 126.833 98.8776 126.833 65.0001C126.833 63.9797 127.649 63.1633 128.669 63.1633C129.688 63.1633 130.504 63.9797 130.504 65.0001C130.402 100.816 101.239 130 65.4489 130Z" fill="#D6DCE8"/>
<path d="M108.174 20.2042C107.766 20.2042 107.256 20.0001 106.95 19.6939C106.236 18.9797 106.236 17.8572 106.848 17.1429C107.562 16.4286 108.581 16.3266 109.295 17.0409L109.397 17.1429C110.111 17.8572 110.111 18.9797 109.397 19.6939C109.091 20.1021 108.683 20.2042 108.174 20.2042Z" fill="#D6DCE8"/>
<path d="M100.22 13.9797C99.914 13.9797 99.5062 13.8776 99.2003 13.6736C96.5491 11.9389 93.796 10.4083 91.0429 9.08173C90.1251 8.67356 89.7173 7.65315 90.1251 6.73479C90.533 5.81642 91.5527 5.40826 92.4704 5.81642C95.4274 7.14295 98.3845 8.7756 101.138 10.6123C101.953 11.1225 102.157 12.245 101.647 13.0613C101.342 13.7756 100.832 13.9797 100.22 13.9797Z" fill="#D6DCE8"/>
<path d="M2.33114 66.8368C1.31147 66.8368 0.495728 66.0204 0.495728 65C0.495728 29.1837 29.6584 0 65.449 0C70.8533 0 76.2576 0.714286 81.3559 1.93878C82.2737 2.14286 82.8854 3.16327 82.6815 4.08163C82.4776 5 81.4579 5.61225 80.5402 5.40817C75.6458 4.18367 70.5474 3.57143 65.449 3.57143C31.5958 3.57143 4.06459 31.1225 4.06459 65C4.06459 66.0204 3.24885 66.8368 2.33114 66.8368Z" fill="#D6DCE8"/>
<path d="M74.5686 38.6282H54.2173V34.6085C54.2173 30.8903 57.3303 27.8755 61.0459 27.8755H67.74C71.556 27.8755 74.5686 30.9908 74.5686 34.6085V38.6282Z" fill="#F1F3F9" stroke="#AAB2C5" stroke-width="2" stroke-miterlimit="10" stroke-linecap="round" stroke-linejoin="round"/>
<path d="M88.645 50.5867L83.4231 44.9591L88.4441 40.3365C89.1471 39.633 90.2517 39.7335 90.8542 40.437L93.7664 43.5522C94.4694 44.2557 94.3689 45.3611 93.666 45.9641L88.645 50.5867Z" fill="#F1F3F9" stroke="#AAB2C5" stroke-width="2" stroke-miterlimit="10" stroke-linecap="round" stroke-linejoin="round"/>
<path d="M39.3387 50.5867L44.5606 44.9591L39.5395 40.3365C38.8366 39.633 37.7319 39.7335 37.1294 40.437L34.2172 43.5522C33.5143 44.2557 33.6147 45.3611 34.3176 45.9641L39.3387 50.5867Z" fill="#F1F3F9" stroke="#AAB2C5" stroke-width="2" stroke-miterlimit="10" stroke-linecap="round" stroke-linejoin="round"/>
<path d="M64.0416 97.718C81.2899 97.718 95.2724 83.8605 95.2724 66.7662C95.2724 49.672 81.2899 35.8145 64.0416 35.8145C46.7933 35.8145 32.8108 49.672 32.8108 66.7662C32.8108 83.8605 46.7933 97.718 64.0416 97.718Z" fill="#F1F3F9" stroke="#AAB2C5" stroke-width="2" stroke-miterlimit="10" stroke-linecap="round" stroke-linejoin="round"/>
<path d="M64.0417 93.0955C78.6833 93.0955 90.5527 81.3076 90.5527 66.7664C90.5527 52.2252 78.6833 40.4373 64.0417 40.4373C49.4 40.4373 37.5306 52.2252 37.5306 66.7664C37.5306 81.3076 49.4 93.0955 64.0417 93.0955Z" fill="white" stroke="#D6DCE8" stroke-width="2" stroke-miterlimit="10"/>
<path opacity="0.3" d="M90.5527 66.7663C90.5527 67.2688 90.5527 67.6707 90.4522 68.1732C89.7493 54.2047 78.2009 43.251 64.0416 43.251C49.8823 43.251 38.334 54.3052 37.5306 68.0727C37.5306 67.5702 37.4302 67.1683 37.4302 66.6658C37.4302 52.0943 49.3802 40.3367 63.9412 40.3367C78.703 40.4372 90.5527 52.1948 90.5527 66.7663Z" fill="#D6DCE8" stroke="#D6DCE8" stroke-width="2" stroke-miterlimit="10"/>
<path opacity="0.7" d="M85.3309 66.7662C85.3309 67.5701 85.2305 68.2736 85.2305 68.977C85.13 70.5849 83.3225 71.4893 81.8162 70.7859L70.6695 64.9573C69.8661 64.5553 69.364 63.7514 69.364 62.8469V49.6824C69.364 47.974 71.0712 46.7681 72.6779 47.4715C80.109 50.7878 85.3309 58.1238 85.3309 66.7662Z" fill="#D6DCE8"/>
<path d="M65.5483 65.6609H62.6361L62.7365 52.5968C62.7365 51.7929 63.4395 51.1899 64.1424 51.1899C64.9458 51.1899 65.5483 51.8934 65.5483 52.5968V65.6609Z" fill="#AAB2C5"/>
<path d="M62.1338 67.4697C62.1338 66.4647 62.9372 65.5603 64.0418 65.5603C65.1464 65.5603 65.8494 66.3642 65.8494 67.3692C65.8494 68.3741 65.046 69.2785 63.9414 69.2785C62.9372 69.2785 62.1338 68.5751 62.1338 67.4697Z" fill="#AAB2C5"/>
<path d="M82.72 77.1171C82.6196 77.2176 82.3183 77.2176 82.2179 77.2176L63.7405 67.9723C63.5396 67.8718 63.4392 67.5703 63.5396 67.3693C63.6401 67.1683 63.9413 67.0678 64.1422 67.1683L82.6196 76.4137C82.8204 76.5142 82.9208 76.8156 82.8204 77.0166C82.9208 77.1171 82.8204 77.1171 82.72 77.1171Z" fill="#AAB2C5"/>
<path d="M60.728 67.4698C60.728 65.7614 62.1339 64.3545 63.9415 64.254C65.7491 64.1535 67.0545 65.6609 67.0545 67.3693C67.0545 69.0777 65.6486 70.4846 63.8411 70.5851C62.1339 70.7861 60.728 69.2787 60.728 67.4698Z" fill="white" stroke="#D6DCE8" stroke-width="2" stroke-miterlimit="10"/>
<path d="M64.8451 85.1565H63.1379C62.8367 85.1565 62.5354 85.3575 62.5354 85.7594V89.9801C62.5354 90.2816 62.7362 90.5831 63.1379 90.5831H64.8451C65.1463 90.5831 65.4476 90.3821 65.4476 89.9801V85.7594C65.3472 85.458 65.1463 85.1565 64.8451 85.1565Z" fill="#D6DCE8"/>
<path d="M64.8451 42.447H63.1379C62.8367 42.447 62.5354 42.648 62.5354 43.05V47.2707C62.5354 47.5722 62.7362 47.8736 63.1379 47.8736H64.8451C65.1463 47.8736 65.4476 47.6726 65.4476 47.2707V43.05C65.3472 42.7485 65.1463 42.447 64.8451 42.447Z" fill="#D6DCE8"/>
<path d="M45.062 64.8569H40.8443C40.5431 64.8569 40.2418 65.0579 40.2418 65.4599V67.1683C40.2418 67.4697 40.4427 67.7712 40.8443 67.7712H45.062C45.3633 67.7712 45.6645 67.5702 45.6645 67.1683V65.4599C45.6645 65.0579 45.3633 64.8569 45.062 64.8569Z" fill="#D6DCE8"/>
<path d="M72.5884 88.8857C73.3133 88.6074 73.6753 87.7938 73.3968 87.0685C73.1184 86.3431 72.305 85.9807 71.58 86.259C70.855 86.5373 70.4931 87.351 70.7715 88.0763C71.05 88.8017 71.8634 89.164 72.5884 88.8857Z" fill="#D6DCE8"/>
<path d="M81.2274 83.1823C81.7668 82.6234 81.7513 81.7327 81.1928 81.1929C80.6343 80.6531 79.7443 80.6686 79.2049 81.2275C78.6655 81.7864 78.681 82.6771 79.2395 83.2169C79.798 83.7567 80.688 83.7412 81.2274 83.1823Z" fill="#D6DCE8"/>
<path d="M43.1963 74.5419C43.931 74.2904 44.3226 73.4907 44.071 72.7556C43.8194 72.0206 43.0199 71.6285 42.2853 71.8799C41.5506 72.1314 41.159 72.9311 41.4106 73.6662C41.6622 74.4012 42.4617 74.7933 43.1963 74.5419Z" fill="#D6DCE8"/>
<path d="M48.9298 82.7529C49.4894 82.2142 49.5067 81.3236 48.9683 80.7636C48.43 80.2036 47.54 80.1864 46.9804 80.725C46.4208 81.2637 46.4036 82.1544 46.9419 82.7144C47.4802 83.2744 48.3702 83.2916 48.9298 82.7529Z" fill="#D6DCE8"/>
<path d="M57.3499 87.4595C57.6297 86.7347 57.2692 85.9205 56.5448 85.6408C55.8204 85.3612 55.0063 85.7221 54.7265 86.4469C54.4468 87.1717 54.8072 87.986 55.5316 88.2656C56.2561 88.5452 57.0701 88.1843 57.3499 87.4595Z" fill="#D6DCE8"/>
<path d="M57.6516 46.8907C58.3886 46.6462 58.7879 45.8502 58.5433 45.1127C58.2987 44.3753 57.5029 43.9756 56.7658 44.22C56.0288 44.4644 55.6296 45.2604 55.8741 45.9979C56.1187 46.7354 56.9145 47.1351 57.6516 46.8907Z" fill="#D6DCE8"/>
<path d="M49.6324 51.612C50.1971 51.0786 50.2228 50.1882 49.6898 49.6232C49.1568 49.0582 48.2671 49.0325 47.7024 49.5658C47.1378 50.0991 47.1121 50.9895 47.6451 51.5546C48.178 52.1196 49.0678 52.1453 49.6324 51.612Z" fill="#D6DCE8"/>
<path d="M44.3406 59.2101C44.6067 58.5396 44.2791 57.7801 43.609 57.5139C42.9389 57.2477 42.18 57.5755 41.914 58.246C41.6479 58.9166 41.9755 59.676 42.6456 59.9423C43.3157 60.2085 44.0745 59.8807 44.3406 59.2101Z" fill="#D6DCE8"/>
</svg>
