<svg width="16" height="16" viewBox="0 0 16 16" fill="none" xmlns="http://www.w3.org/2000/svg">
<path d="M6.00016 14.6668H10.0002C13.3335 14.6668 14.6668 13.3335 14.6668 10.0002V6.00016C14.6668 2.66683 13.3335 1.3335 10.0002 1.3335H6.00016C2.66683 1.3335 1.3335 2.66683 1.3335 6.00016V10.0002C1.3335 13.3335 2.66683 14.6668 6.00016 14.6668Z" stroke="#6B7280" stroke-linecap="round" stroke-linejoin="round"/>
<path d="M5.99984 6.66667C6.73622 6.66667 7.33317 6.06971 7.33317 5.33333C7.33317 4.59695 6.73622 4 5.99984 4C5.26346 4 4.6665 4.59695 4.6665 5.33333C4.6665 6.06971 5.26346 6.66667 5.99984 6.66667Z" stroke="#6B7280" stroke-linecap="round" stroke-linejoin="round"/>
<path d="M1.77979 12.6335L5.06645 10.4269C5.59312 10.0735 6.35312 10.1135 6.82645 10.5202L7.04645 10.7135C7.56645 11.1602 8.40645 11.1602 8.92645 10.7135L11.6998 8.33354C12.2198 7.88687 13.0598 7.88687 13.5798 8.33354L14.6665 9.26687" stroke="#6B7280" stroke-linecap="round" stroke-linejoin="round"/>
</svg>
