<svg width="129" height="144" viewBox="0 0 129 144" fill="none" xmlns="http://www.w3.org/2000/svg">
<path d="M64.5 142.768C99.4382 142.768 127.761 114.271 127.761 79.1187C127.761 43.9662 99.4382 15.4695 64.5 15.4695C29.5618 15.4695 1.23878 43.9662 1.23878 79.1187C1.23878 114.271 29.5618 142.768 64.5 142.768Z" fill="#F1F3F9" stroke="#D6DCE8" stroke-width="2" stroke-miterlimit="10"/>
<mask id="mask0_656_8899" style="mask-type:alpha" maskUnits="userSpaceOnUse" x="0" y="14" width="129" height="130">
<path d="M64.5 142.768C99.4382 142.768 127.761 114.271 127.761 79.1187C127.761 43.9662 99.4382 15.4695 64.5 15.4695C29.5618 15.4695 1.23878 43.9662 1.23878 79.1187C1.23878 114.271 29.5618 142.768 64.5 142.768Z" fill="#F1F3F9" stroke="#D6DCE8" stroke-width="2" stroke-miterlimit="10"/>
</mask>
<g mask="url(#mask0_656_8899)">
<path d="M115.316 135.119H136.935C137.334 133.835 137.653 132.471 137.813 131.186C137.813 131.026 137.892 130.785 137.892 130.625C137.892 130.464 137.892 130.304 137.972 130.143C138.371 124.364 136.377 118.585 132.627 114.331C132.548 114.251 132.548 114.251 132.468 114.171C129.197 110.559 124.65 107.99 119.145 107.428C118.986 107.428 118.826 107.428 118.667 107.348C118.507 107.348 118.348 107.348 118.108 107.348C117.71 107.348 117.39 107.348 116.992 107.348C114.359 107.348 111.806 107.83 109.493 108.713C108.695 109.034 107.897 109.355 107.179 109.756C106.94 109.917 106.701 109.997 106.461 110.157C106.222 110.318 106.062 110.398 105.823 110.559C105.664 110.639 105.504 110.799 105.344 110.88C105.185 110.96 105.025 111.12 104.866 111.201C104.626 111.361 104.387 111.602 104.068 111.763C102.552 112.967 101.196 114.331 100.079 115.856C99.9198 116.097 99.6805 116.338 99.5209 116.659C99.4411 116.819 99.2816 116.98 99.2018 117.14C99.122 117.301 98.9625 117.461 98.8827 117.702C98.7232 117.943 98.6434 118.103 98.5636 118.344C98.4838 118.424 98.4838 118.505 98.4041 118.585C98.3243 118.746 98.1647 118.986 98.085 119.227C98.0052 119.388 97.9254 119.548 97.8456 119.709C94.894 119.869 92.1019 120.832 86.1986 124.765L85.2413 103.335H77.8222L77.184 116.659C74.7908 114.813 72.4773 115.053 70.8819 115.134L71.2807 115.053L70.6425 101.89H58.5168L57.7988 117.542C55.7247 115.936 55.0865 116.739 54.4483 116.739C53.1719 116.739 52.0551 117.06 51.018 117.622L50.3798 103.335H43.0405L42.5619 114.652C39.2114 112.645 35.3024 111.522 31.2339 111.522C26.2081 111.522 21.5812 113.207 17.8318 116.017C11.0509 112.806 4.03079 113.528 -1.47365 116.659C-1.71298 116.819 -1.87253 116.899 -2.11185 117.06C-2.19163 117.14 -2.35118 117.221 -2.43095 117.221C-2.5905 117.301 -2.67027 117.381 -2.82982 117.461C-2.98937 117.542 -3.14892 117.622 -3.22869 117.782C-5.06351 119.067 -6.659 120.592 -7.93539 122.357C-8.01517 122.518 -8.17472 122.598 -8.25449 122.759C-8.33426 122.919 -8.49381 123 -8.57359 123.16C-8.65336 123.321 -8.73314 123.401 -8.89269 123.561C-8.97246 123.722 -9.05224 123.882 -9.13201 123.963C-9.21178 124.043 -9.29156 124.203 -9.29156 124.284C-11.2061 127.494 -12.2432 131.186 -12.2432 135.119L86.1986 145.233L115.316 135.119Z" fill="white"/>
<path d="M51.0182 117.541L50.38 103.254H43.0407L42.5621 114.572" fill="white"/>
<path d="M51.0182 117.541L50.38 103.254H43.0407L42.5621 114.572" stroke="#D6DCE8" stroke-width="2" stroke-miterlimit="10" stroke-linecap="round" stroke-linejoin="round"/>
<path d="M86.1189 125.167L85.0818 103.174H77.8223L77.1841 116.498L86.1189 125.167Z" fill="white"/>
<path d="M86.1189 125.167L85.0818 103.174H77.8223L77.1841 116.498" stroke="#D6DCE8" stroke-width="2" stroke-miterlimit="10" stroke-linecap="round" stroke-linejoin="round"/>
<path d="M71.3603 114.973L70.7221 101.81H58.5166L57.7987 117.22V117.461" fill="white"/>
<path d="M71.3603 114.973L70.7221 101.81H58.5166L57.7987 117.22V117.461" stroke="#D6DCE8" stroke-width="2" stroke-miterlimit="10" stroke-linecap="round" stroke-linejoin="round"/>
<path d="M49.9811 118.264C51.1777 117.221 52.7732 116.659 54.4484 116.659C57.2405 116.659 59.6338 118.264 60.7506 120.592" stroke="#D6DCE8" stroke-width="2" stroke-miterlimit="10" stroke-linecap="round" stroke-linejoin="round"/>
<path d="M8.81731 133.915C8.81731 121.474 18.7891 111.441 31.1542 111.441C41.4451 111.441 50.1405 118.424 52.6933 127.976" stroke="#D6DCE8" stroke-width="2" stroke-miterlimit="10" stroke-linecap="round" stroke-linejoin="round"/>
<path d="M52.9325 127.896C53.1719 123.802 56.5224 120.592 60.6707 120.592C62.1864 120.592 63.6223 121.073 64.819 121.796" stroke="#D6DCE8" stroke-width="2" stroke-miterlimit="10" stroke-linecap="round" stroke-linejoin="round"/>
<path d="M68.1696 116.257C69.446 115.374 70.882 114.893 72.5572 114.893C75.11 114.893 77.3437 116.177 78.7796 118.023" stroke="#D6DCE8" stroke-width="2" stroke-miterlimit="10" stroke-linecap="round" stroke-linejoin="round"/>
<path d="M115.316 134.638C115.157 132.631 114.598 130.705 113.721 129.019" stroke="#D6DCE8" stroke-width="2" stroke-miterlimit="10" stroke-linecap="round" stroke-linejoin="round"/>
<path d="M85.2413 126.692C88.2728 122.357 93.2188 119.548 98.803 119.548C104.148 119.548 108.934 122.117 111.966 126.049" stroke="#D6DCE8" stroke-width="2" stroke-miterlimit="10" stroke-linecap="round" stroke-linejoin="round"/>
<path d="M64.6593 134.397C63.8615 130.384 60.3515 127.334 56.1234 127.334C54.9268 127.334 53.81 127.575 52.7729 128.056C50.7785 128.859 49.183 130.464 48.3055 132.39" stroke="#D6DCE8" stroke-width="2" stroke-miterlimit="10" stroke-linecap="round" stroke-linejoin="round"/>
<path d="M17.8318 115.936C17.752 115.936 17.752 115.936 17.8318 115.936C11.5296 112.967 4.03079 113.207 -2.11185 116.98C-2.19163 117.06 -2.35118 117.14 -2.43095 117.14C-2.5905 117.221 -2.67027 117.301 -2.82982 117.381C-3.54779 117.863 -4.18599 118.344 -4.82419 118.906C-6.26013 120.19 -7.53652 121.555 -8.57359 123.08C-8.65336 123.24 -8.73314 123.321 -8.89269 123.481C-8.97246 123.642 -9.05224 123.802 -9.13201 123.882C-9.21178 123.963 -9.29156 124.123 -9.29156 124.203C-11.1264 127.334 -12.0837 130.865 -12.2432 134.477" stroke="#D6DCE8" stroke-width="2" stroke-miterlimit="10" stroke-linecap="round" stroke-linejoin="round"/>
<path d="M97.766 119.548C97.8458 119.387 97.9256 119.227 98.0053 119.066C99.9199 115.053 103.111 111.762 107.02 109.675C107.738 109.274 108.536 108.953 109.333 108.632C111.647 107.749 114.2 107.268 116.832 107.268C117.231 107.268 117.55 107.268 117.949 107.268C118.109 107.268 118.268 107.268 118.507 107.268C118.667 107.268 118.826 107.268 118.986 107.348C124.251 107.91 128.958 110.398 132.308 114.09C132.388 114.17 132.388 114.17 132.468 114.251C135.818 118.023 137.893 122.999 137.893 128.457C137.893 129.019 137.893 129.501 137.813 130.063C137.813 130.223 137.813 130.384 137.733 130.544C137.733 130.705 137.653 130.945 137.653 131.106C137.494 132.23 137.254 133.353 136.935 134.477" stroke="#D6DCE8" stroke-width="2" stroke-miterlimit="10" stroke-linecap="round" stroke-linejoin="round"/>
</g>
<path d="M64.5 142.768C99.4382 142.768 127.761 114.271 127.761 79.1187C127.761 43.9662 99.4382 15.4695 64.5 15.4695C29.5618 15.4695 1.23878 43.9662 1.23878 79.1187C1.23878 114.271 29.5618 142.768 64.5 142.768Z" stroke="#D6DCE8" stroke-width="2" stroke-miterlimit="10"/>
<path d="M32.4304 69.6476H32.1113C31.7124 69.6476 31.3135 69.3266 31.3135 68.845V68.5239C31.3135 68.2029 30.9944 67.8818 30.6753 67.8818C30.3562 67.8818 30.0371 68.2029 30.0371 68.5239V68.845C30.0371 69.2463 29.718 69.6476 29.2394 69.6476H29C28.6809 69.6476 28.3619 69.9687 28.3619 70.2898C28.3619 70.6108 28.6809 70.9319 29 70.9319H29.3191C29.718 70.9319 30.1169 71.2529 30.1169 71.7345V72.0556C30.1169 72.3766 30.436 72.6977 30.7551 72.6977C31.0742 72.6977 31.3933 72.3766 31.3933 72.0556V71.7345C31.3933 71.3332 31.7124 70.9319 32.191 70.9319H32.5101C32.8292 70.9319 33.1483 70.6108 33.1483 70.2898C33.0685 69.9687 32.8292 69.6476 32.4304 69.6476Z" fill="#D6DCE8"/>
<path d="M28.6015 45.9697H28.2824C27.724 45.9697 27.3251 45.5684 27.3251 45.0065V44.6855C27.3251 44.2841 27.0061 43.8828 26.5274 43.8828C26.0488 43.8828 25.7297 44.2039 25.7297 44.6855V45.0065C25.7297 45.5684 25.3308 45.9697 24.7724 45.9697H24.3735C23.9746 45.9697 23.5757 46.2907 23.5757 46.7723C23.5757 47.1736 23.8948 47.575 24.3735 47.575H24.6926C25.251 47.575 25.6499 47.9763 25.6499 48.5381V48.8592C25.6499 49.2605 25.969 49.6618 26.4476 49.6618C26.9263 49.6618 27.2454 49.3408 27.2454 48.8592V48.5381C27.2454 47.9763 27.6442 47.575 28.2027 47.575H28.5218C28.9206 47.575 29.3195 47.2539 29.3195 46.7723C29.3993 46.371 29.0802 45.9697 28.6015 45.9697Z" fill="#D6DCE8"/>
<path d="M103.35 43.321H103.111C102.792 43.321 102.473 43 102.473 42.6789V42.4381C102.473 42.1171 102.233 41.9565 101.994 41.9565C101.675 41.9565 101.435 42.1973 101.435 42.4381V42.6789C101.435 43 101.116 43.321 100.797 43.321H100.558C100.239 43.321 100.079 43.5618 100.079 43.8026C100.079 44.1237 100.319 44.2842 100.558 44.2842H100.797C101.116 44.2842 101.435 44.6053 101.435 44.9263V45.1671C101.435 45.4882 101.675 45.6487 101.994 45.6487C102.313 45.6487 102.473 45.4079 102.473 45.1671V44.9263C102.473 44.6053 102.792 44.2842 103.111 44.2842H103.35C103.669 44.2842 103.829 44.0434 103.829 43.8026C103.908 43.6421 103.589 43.321 103.35 43.321Z" fill="#D6DCE8"/>
<path d="M102.632 104.562H102.393C102.074 104.562 101.755 104.241 101.755 103.92V103.679C101.755 103.358 101.515 103.198 101.276 103.198C100.957 103.198 100.718 103.439 100.718 103.679V103.92C100.718 104.241 100.399 104.562 100.08 104.562H99.8402C99.5211 104.562 99.3615 104.803 99.3615 105.044C99.3615 105.285 99.6009 105.525 99.8402 105.525H100.08C100.399 105.525 100.718 105.846 100.718 106.168V106.408C100.718 106.729 100.957 106.89 101.276 106.89C101.595 106.89 101.755 106.649 101.755 106.408V106.168C101.755 105.846 102.074 105.525 102.393 105.525H102.632C102.951 105.525 103.111 105.285 103.111 105.044C103.111 104.803 102.872 104.562 102.632 104.562Z" fill="#D6DCE8"/>
<path d="M28.8407 104.081H28.6013C28.2822 104.081 27.9632 103.76 27.9632 103.439V103.198C27.9632 102.877 27.7238 102.716 27.4845 102.716C27.1654 102.716 26.9261 102.957 26.9261 103.198V103.439C26.9261 103.76 26.607 104.081 26.2879 104.081H26.0486C25.7295 104.081 25.5699 104.322 25.5699 104.562C25.5699 104.883 25.8092 105.044 26.0486 105.044H26.2879C26.607 105.044 26.9261 105.365 26.9261 105.686V105.927C26.9261 106.248 27.1654 106.408 27.4845 106.408C27.8036 106.408 27.9632 106.168 27.9632 105.927V105.686C27.9632 105.365 28.2822 105.044 28.6013 105.044H28.8407C29.1598 105.044 29.3193 104.803 29.3193 104.562C29.3991 104.322 29.08 104.081 28.8407 104.081Z" fill="#D6DCE8"/>
<path d="M15.9972 79.1188C15.0399 79.1188 14.2421 78.3161 14.2421 77.353C14.2421 76.3898 15.0399 75.5872 15.9972 75.5872C16.9545 75.5872 17.7522 76.3898 17.7522 77.353C17.7522 78.3161 16.9545 79.1188 15.9972 79.1188ZM15.9972 76.5503C15.5983 76.5503 15.1994 76.8714 15.1994 77.353C15.1994 77.7543 15.5185 78.1556 15.9972 78.1556C16.396 78.1556 16.7949 77.8345 16.7949 77.353C16.8747 76.9516 16.4758 76.5503 15.9972 76.5503Z" fill="#D6DCE8"/>
<path d="M97.7657 67.1595C96.25 67.1595 95.1331 65.9555 95.1331 64.5108C95.1331 63.066 96.3298 61.8621 97.7657 61.8621C99.2814 61.8621 100.398 63.066 100.398 64.5108C100.398 65.9555 99.2017 67.1595 97.7657 67.1595ZM97.7657 63.3068C97.1275 63.3068 96.4893 63.8687 96.4893 64.591C96.4893 65.3134 97.0477 65.8753 97.7657 65.8753C98.4039 65.8753 99.0421 65.3134 99.0421 64.591C99.0421 63.8687 98.4837 63.3068 97.7657 63.3068Z" fill="#D6DCE8"/>
<path d="M113.721 58.491C113.082 58.491 112.524 58.9726 112.524 59.6949C112.524 60.4173 113.003 60.8989 113.721 60.8989C114.359 60.8989 114.917 60.4173 114.917 59.6949C114.917 58.9726 114.359 58.491 113.721 58.491Z" fill="#D6DCE8"/>
<path d="M113.801 86.1017H113.481C113.003 86.1017 112.684 85.7004 112.684 85.299V84.978C112.684 84.5767 112.365 84.2556 111.966 84.2556C111.567 84.2556 111.248 84.5767 111.248 84.978V85.299C111.248 85.7806 110.849 86.1017 110.45 86.1017H110.131C109.732 86.1017 109.413 86.4227 109.413 86.8241C109.413 87.2254 109.732 87.5464 110.131 87.5464H110.45C110.929 87.5464 111.248 87.9478 111.248 88.3491V88.6701C111.248 89.0714 111.567 89.3925 111.966 89.3925C112.365 89.3925 112.684 89.0714 112.684 88.6701V88.3491C112.684 87.8675 113.083 87.5464 113.481 87.5464H113.801C114.199 87.5464 114.518 87.2254 114.518 86.8241C114.439 86.4227 114.199 86.1017 113.801 86.1017Z" fill="#D6DCE8"/>
<path d="M69.446 97.1545H59.4742L57.4 98.519C57.0012 98.8401 56.7618 99.2414 56.7618 99.8033V101.168H72.4774V99.8835C72.4774 99.3217 72.2381 98.8401 71.7594 98.5993L69.446 97.1545Z" fill="white" stroke="#D6DCE8" stroke-width="2" stroke-miterlimit="10" stroke-linecap="round" stroke-linejoin="round"/>
<path d="M73.1153 101.81C73.1153 102.131 72.876 102.452 72.4771 102.452H56.5222C56.2031 102.452 55.884 102.211 55.884 101.81C55.884 101.489 56.1234 101.168 56.5222 101.168H72.4771C72.7962 101.168 73.1153 101.489 73.1153 101.81Z" fill="white" stroke="#D6DCE8" stroke-width="2" stroke-miterlimit="10" stroke-linecap="round" stroke-linejoin="round"/>
<path d="M51.4966 103.255H41.7641C41.5247 103.255 41.3652 103.094 41.3652 102.853C41.3652 102.612 41.5247 102.452 41.7641 102.452H51.4966C51.7359 102.452 51.8954 102.612 51.8954 102.853C51.8157 103.094 51.6561 103.255 51.4966 103.255Z" fill="#D6DCE8" stroke="#AAB2C5" stroke-width="2" stroke-miterlimit="10" stroke-linejoin="round"/>
<path d="M50.9381 100.927C51.1775 101.088 51.4168 101.409 51.4168 101.73V102.532H41.8438V101.73C41.8438 101.409 42.0034 101.088 42.2427 100.927L43.5191 100.044V96.5928H49.582V100.124L50.9381 100.927Z" fill="#D6DCE8" stroke="#AAB2C5" stroke-width="2" stroke-miterlimit="10" stroke-linejoin="round"/>
<path d="M47.2687 19.138C46.8699 18.817 46.3115 18.817 45.9924 19.138C44.2373 20.663 41.4452 26.0407 41.4452 31.7394V98.9203C41.4452 99.5624 41.9239 100.044 42.5621 100.044H46.6306H50.6991C51.3373 100.044 51.8159 99.5624 51.8159 98.9203V31.8197C51.8159 26.0407 49.0238 20.7433 47.2687 19.138Z" fill="#F1F3F9" stroke="#AAB2C5" stroke-width="2" stroke-miterlimit="10" stroke-linejoin="round"/>
<path d="M65.6167 1.80099C64.7391 1.39967 63.4628 1.39967 62.5852 1.80099C58.437 3.88785 51.8157 13.7603 51.8157 21.5459C51.8157 30.3749 51.8157 95.9505 51.8157 95.9505H64.101H76.3862C76.3862 95.9505 76.3862 30.3749 76.3862 21.5459C76.3065 13.7603 69.7649 3.96811 65.6167 1.80099Z" fill="#D6DCE8" stroke="#AAB2C5" stroke-width="2" stroke-miterlimit="10" stroke-linejoin="round"/>
<path d="M57.2405 30.4551H76.3864H57.2405Z" fill="#D6DCE8"/>
<path d="M57.2405 30.4551H76.3864" stroke="#AAB2C5" stroke-width="2" stroke-miterlimit="10" stroke-linejoin="round"/>
<path d="M51.8157 30.4551H54.1291H51.8157Z" fill="#D6DCE8"/>
<path d="M51.8157 30.4551H54.1291" stroke="#AAB2C5" stroke-width="2" stroke-miterlimit="10" stroke-linejoin="round"/>
<path d="M46.8695 32.7026H51.8156H46.8695Z" fill="#D6DCE8"/>
<path d="M46.8695 32.7026H51.8156" stroke="#AAB2C5" stroke-width="2" stroke-miterlimit="10" stroke-linejoin="round"/>
<path d="M41.3652 32.7026H43.5191H41.3652Z" fill="#D6DCE8"/>
<path d="M41.3652 32.7026H43.5191" stroke="#AAB2C5" stroke-width="2" stroke-miterlimit="10" stroke-linejoin="round"/>
<path d="M45.354 46.5884H51.8158H45.354Z" fill="#D6DCE8"/>
<path d="M45.354 46.5884H51.8158" stroke="#AAB2C5" stroke-width="2" stroke-miterlimit="10" stroke-linejoin="round"/>
<path d="M86.4377 103.255H76.7052C76.4659 103.255 76.3064 103.094 76.3064 102.853C76.3064 102.612 76.4659 102.452 76.7052 102.452H86.4377C86.6771 102.452 86.8366 102.612 86.8366 102.853C86.7568 103.094 86.5973 103.255 86.4377 103.255Z" fill="#D6DCE8" stroke="#AAB2C5" stroke-width="2" stroke-miterlimit="10" stroke-linejoin="round"/>
<path d="M85.9593 100.927C86.1987 101.088 86.438 101.409 86.438 101.73V102.532H76.865V101.73C76.865 101.409 77.0246 101.088 77.2639 100.927L78.5403 100.044V96.5928H84.6032V100.124L85.9593 100.927Z" fill="#D6DCE8" stroke="#AAB2C5" stroke-width="2" stroke-miterlimit="10" stroke-linejoin="round"/>
<path d="M82.2099 19.138C81.8111 18.817 81.2526 18.817 80.9335 19.138C79.1785 20.663 76.3864 26.0407 76.3864 31.7394V98.9203C76.3864 99.5624 76.865 100.044 77.5032 100.044H81.5717H85.6402C86.2784 100.044 86.7571 99.5624 86.7571 98.9203V31.8197C86.7571 26.0407 83.965 20.7433 82.2099 19.138Z" fill="#F1F3F9" stroke="#AAB2C5" stroke-width="2" stroke-miterlimit="10" stroke-linejoin="round"/>
<path d="M80.5348 32.7026H86.837H80.5348Z" fill="#D6DCE8"/>
<path d="M80.5348 32.7026H86.837" stroke="#AAB2C5" stroke-width="2" stroke-miterlimit="10" stroke-linejoin="round"/>
<path d="M81.0134 46.5884H86.7572H81.0134Z" fill="#D6DCE8"/>
<path d="M81.0134 46.5884H86.7572" stroke="#AAB2C5" stroke-width="2" stroke-miterlimit="10" stroke-linejoin="round"/>
<path d="M76.3064 46.5884H78.5401H76.3064Z" fill="#D6DCE8"/>
<path d="M76.3064 46.5884H78.5401" stroke="#AAB2C5" stroke-width="2" stroke-miterlimit="10" stroke-linejoin="round"/>
<path d="M57.0011 41.692L57.4797 39.7657L58.7561 39.4447L60.91 38.9631L61.1493 38.8828L61.3089 41.692L64.4201 87.8438L57.719 97.1544L55.0865 96.6728L36.5788 93.4623C35.4619 93.3017 34.5844 92.2583 34.5844 91.1346V82.3858C34.5844 81.3424 34.9833 80.299 35.7013 79.5766L48.1461 66.8949C50.1405 64.808 51.6562 62.2396 52.3741 59.5106L55.0067 49.3974L57.0011 41.692Z" fill="white" stroke="#AAB2C5" stroke-width="2" stroke-miterlimit="10" stroke-linejoin="round"/>
<path d="M94.4949 82.3858V91.1346C94.4949 92.2583 93.6971 93.3017 92.5005 93.4623L78.6198 95.8702L71.3603 97.1544L64.5794 87.8438L67.93 38.8828L68.1693 38.9631L70.3232 39.4447L71.5996 39.7657L76.2265 57.3435L76.7849 59.5106C77.5029 62.3199 78.9389 64.8883 81.013 66.8949L93.4578 79.5766C94.096 80.299 94.4949 81.3424 94.4949 82.3858Z" fill="white" stroke="#AAB2C5" stroke-width="2" stroke-miterlimit="10" stroke-linejoin="round"/>
<path d="M71.5999 37.1974V96.0308H57.2405V37.1974C57.2405 34.6289 57.7989 32.1407 58.836 29.8131C59.0753 29.4118 59.2349 28.9302 59.4742 28.5289L62.5056 23.4722C63.3831 22.0275 65.3775 22.0275 66.255 23.4722L69.2864 28.5289C69.5258 28.9302 69.7651 29.4118 69.9246 29.8131C71.0415 32.1407 71.5999 34.7092 71.5999 37.1974Z" fill="white" stroke="#AAB2C5" stroke-width="2" stroke-miterlimit="10" stroke-linejoin="round"/>
<path d="M70.0045 29.8131C69.5258 29.0104 68.6483 28.5289 67.6112 28.5289H61.2293C60.272 28.5289 59.3944 29.0104 58.836 29.8131C59.0753 29.4118 59.2349 28.9302 59.4742 28.5289L62.5057 23.4722C63.3832 22.0275 65.3775 22.0275 66.2551 23.4722L69.2865 28.5289C69.5258 28.9302 69.8449 29.4118 70.0045 29.8131Z" fill="#AAB2C5"/>
<path d="M68.0897 36.6354C68.0897 36.8762 67.7706 37.0367 67.611 36.7959C67.2121 36.3144 66.6537 36.0736 65.9358 36.0736H62.8245C62.1863 36.0736 61.6279 36.3144 61.2291 36.7959C61.2291 36.7959 61.2291 36.7959 61.1493 36.8762C60.9897 37.117 60.6706 36.9565 60.6706 36.7157C60.6706 36.4749 60.6706 36.2341 60.6706 35.913C60.6706 34.7091 61.6279 33.8262 62.8245 33.8262H65.9358C66.0155 33.8262 66.0953 33.8262 66.1751 33.8262C66.4942 33.8262 66.7335 33.9867 67.0526 34.067C67.6908 34.4683 68.0897 35.1104 68.0897 35.913C68.0897 36.1538 68.0897 36.3946 68.0897 36.6354Z" fill="#AAB2C5"/>
<path d="M60.6705 83.5098H58.9155C56.7615 83.5098 55.0863 85.2756 55.0863 87.3624V97.1546H64.5794V87.3624C64.4997 85.2756 62.7446 83.5098 60.6705 83.5098Z" fill="white" stroke="#AAB2C5" stroke-width="2" stroke-miterlimit="10" stroke-linejoin="round"/>
<path d="M70.0841 83.5098H68.3291C66.1752 83.5098 64.4999 85.2756 64.4999 87.3624V97.1546H73.9931V87.3624C73.9133 85.2756 72.1583 83.5098 70.0841 83.5098Z" fill="white" stroke="#AAB2C5" stroke-width="2" stroke-miterlimit="10" stroke-linejoin="round"/>
<path d="M69.446 97.1545H59.4742L57.4 98.519C57.0012 98.8401 56.7618 99.2414 56.7618 99.8033V101.168H72.4774V99.8835C72.4774 99.3217 72.2381 98.8401 71.7594 98.5993L69.446 97.1545Z" fill="#D6DCE8" stroke="#AAB2C5" stroke-width="2" stroke-miterlimit="10" stroke-linejoin="round"/>
<path d="M73.1153 101.81C73.1153 102.131 72.876 102.452 72.4771 102.452H56.5222C56.2031 102.452 55.884 102.211 55.884 101.81C55.884 101.489 56.1234 101.168 56.5222 101.168H72.4771C72.7962 101.168 73.1153 101.489 73.1153 101.81Z" fill="#D6DCE8" stroke="#AAB2C5" stroke-width="2" stroke-miterlimit="10" stroke-linejoin="round"/>
<rect x="64.4717" y="76.5" width="2" height="21" rx="1" fill="#AAB2C5"/>
</svg>
