<svg width="32" height="32" viewBox="0 0 32 32" fill="none" xmlns="http://www.w3.org/2000/svg">
<path d="M4 24.0367V19.6199L7.63035 17.5199C7.66393 17.5005 7.68072 17.4721 7.68072 17.4334V14.6283C7.68072 14.5831 7.66135 14.5495 7.6226 14.5275L4 12.4354V8.00686L7.75821 5.8333C7.80729 5.80489 7.86928 5.80489 7.91835 5.8333L11.4428 7.87255C11.4803 7.8945 11.5164 7.8945 11.5539 7.87255L13.9819 6.46742C14.0219 6.44417 14.0413 6.4093 14.0413 6.3641V2.26623C14.0413 2.21198 14.0645 2.17195 14.111 2.14483L17.7814 0.0242153C17.8382 -0.00807176 17.908 -0.00807176 17.9635 0.0242153L21.6675 2.16291C21.7062 2.18486 21.7256 2.21844 21.7256 2.26364V6.34085C21.7256 6.40801 21.7617 6.47129 21.8199 6.50487L24.1936 7.87126C24.2272 7.89063 24.2685 7.89063 24.3034 7.87126L27.8562 5.8178C27.8885 5.79972 27.9195 5.79972 27.9505 5.8178L31.6648 7.95778C31.7074 7.98232 31.7346 8.02882 31.7346 8.07918V12.3656C31.7346 12.4199 31.7113 12.4599 31.6648 12.487L28.1262 14.5301C28.0784 14.5573 28.0538 14.5986 28.0538 14.6541V17.3985C28.0538 17.4515 28.0771 17.4915 28.1236 17.5186L31.6506 19.5527C31.7023 19.5824 31.7346 19.6379 31.7346 19.6986V23.9915C31.7346 24.029 31.7178 24.0574 31.6855 24.0768L28.0099 26.2C27.9454 26.2374 27.8653 26.2374 27.8007 26.2L24.2543 24.1517C24.2078 24.1245 24.1613 24.1245 24.1148 24.1517L21.785 25.5C21.7488 25.5206 21.7256 25.5607 21.7256 25.6033V29.674C21.7256 29.7464 21.6946 29.8006 21.6313 29.8381L17.9131 31.9884C17.886 32.0039 17.8602 32.0039 17.8331 31.9884L14.0891 29.8226C14.0593 29.8045 14.0413 29.7735 14.0413 29.7386V25.602C14.0413 25.5645 14.0258 25.5374 13.9935 25.5193L11.6249 24.1504C11.5797 24.1233 11.5332 24.1233 11.488 24.1504L7.94548 26.2C7.8809 26.2361 7.80341 26.2361 7.74013 26.2L4 24.0367ZM21.1586 2.32563C21.1832 2.31143 21.1922 2.28043 21.1793 2.25589C21.1741 2.24685 21.1677 2.2404 21.1586 2.23523L17.8989 0.353543C17.8834 0.344503 17.8628 0.344503 17.8473 0.353543L14.585 2.23265C14.5604 2.24685 14.5514 2.27785 14.5643 2.30239C14.5695 2.31143 14.5759 2.31789 14.585 2.32305L17.846 4.20732C17.8615 4.21636 17.8821 4.21636 17.8976 4.20732L21.1586 2.32563ZM14.4261 2.59814C14.4068 2.58651 14.3809 2.59297 14.3693 2.61364C14.3654 2.62009 14.3641 2.62784 14.3641 2.6343V6.17812C14.3641 6.20137 14.3822 6.21945 14.4055 6.21945C14.4132 6.21945 14.4197 6.21816 14.4261 6.21428L17.4934 4.44237C17.5128 4.43075 17.5205 4.40621 17.5102 4.38684C17.5063 4.38038 17.5011 4.37392 17.4934 4.37005L14.4261 2.59814ZM18.258 4.36747C18.236 4.37909 18.2282 4.4075 18.2412 4.42946C18.245 4.43721 18.2515 4.44237 18.258 4.44625L21.3343 6.22203C21.3562 6.23366 21.3833 6.22591 21.3963 6.20395C21.4001 6.1975 21.4014 6.18975 21.4014 6.182L21.404 2.62655C21.404 2.60201 21.3846 2.58135 21.3588 2.58135C21.3511 2.58135 21.3433 2.58264 21.3368 2.58651L18.258 4.36747ZM17.6342 8.33877C17.6613 8.35556 17.6975 8.34652 17.7142 8.31811C17.7194 8.30907 17.722 8.29874 17.722 8.2884V4.77558C17.722 4.74329 17.6962 4.71746 17.6639 4.71746C17.6535 4.71746 17.6432 4.72004 17.6342 4.72521L14.5979 6.48162C14.5695 6.49712 14.5604 6.53328 14.5759 6.5604C14.5811 6.56944 14.5889 6.57719 14.5979 6.58236L17.6342 8.33877ZM21.1728 6.56557C21.1922 6.55394 21.1987 6.52812 21.187 6.50874C21.1832 6.50229 21.178 6.49841 21.1728 6.49454L18.1081 4.72521C18.0888 4.71358 18.0629 4.72004 18.0513 4.74071C18.0474 4.74716 18.0462 4.75362 18.0462 4.76008L18.0423 8.30519C18.0423 8.32844 18.0604 8.34652 18.0836 8.34652C18.0914 8.34652 18.0978 8.34523 18.1043 8.34135L21.1728 6.56557ZM11.1019 8.13343C11.129 8.11793 11.138 8.08306 11.1225 8.05594C11.1174 8.0469 11.1109 8.04044 11.1019 8.03527L7.86669 6.17425C7.84861 6.16392 7.82795 6.16392 7.80987 6.17425L4.56179 8.05077C4.53467 8.06627 4.52563 8.10114 4.54113 8.12826C4.5463 8.1373 4.55275 8.14376 4.56179 8.14892L7.78791 10.0112C7.806 10.0216 7.82666 10.0216 7.84474 10.0112L11.1019 8.13343ZM31.0914 7.99653L27.9557 6.18587C27.9208 6.1665 27.8859 6.1665 27.8511 6.18587L24.6262 8.04819C24.6056 8.05981 24.5991 8.08564 24.6107 8.10631C24.6146 8.11276 24.6198 8.11793 24.6262 8.1218L27.8782 9.99832C27.9131 10.0177 27.9492 10.0177 27.9841 9.99832L31.1663 8.15926C31.2167 8.12955 31.2283 8.09081 31.1986 8.04044C31.187 8.02107 31.1702 8.01074 31.1469 8.01074C31.1276 8.01074 31.1082 8.00557 31.0914 7.99653ZM27.731 14.6205C27.731 14.5818 27.7103 14.5456 27.6767 14.5263L24.1045 12.4638C24.0709 12.4444 24.0502 12.4082 24.0502 12.3695V8.21996C24.0502 8.18121 24.0296 8.14634 23.996 8.12697L21.6093 6.74508C21.5758 6.72571 21.5344 6.72571 21.5009 6.74508L17.926 8.80887C17.8925 8.82824 17.8511 8.82824 17.8176 8.80887L14.2453 6.74638C14.2117 6.727 14.1704 6.727 14.1368 6.74638L11.7386 8.13214C11.705 8.15151 11.6843 8.18638 11.6843 8.22512V12.3772C11.6843 12.416 11.6637 12.4508 11.6301 12.4702L8.05783 14.534C8.02426 14.5534 8.00359 14.5882 8.00359 14.627V17.4231C8.00359 17.4618 8.02426 17.498 8.05783 17.5173L11.6301 19.5798C11.6637 19.5992 11.6843 19.6354 11.6843 19.6741V23.7552C11.6843 23.7939 11.705 23.8288 11.7386 23.8482L14.1368 25.2378C14.1704 25.2572 14.2117 25.2572 14.2453 25.2378L17.8176 23.1701C17.8511 23.1508 17.8925 23.1508 17.926 23.1701L21.4983 25.2352C21.5319 25.2546 21.5732 25.2546 21.6068 25.2352L23.996 23.8624C24.0296 23.843 24.0502 23.8068 24.0502 23.7681V19.6793C24.0502 19.6405 24.0709 19.6044 24.1045 19.585L27.6767 17.5251C27.7103 17.5057 27.731 17.4695 27.731 17.4308V14.6205ZM4.38486 8.41109C4.3642 8.39947 4.33837 8.40593 4.32674 8.4253C4.32287 8.43176 4.32029 8.43951 4.32029 8.44726L4.32416 12.239C4.32416 12.2545 4.33191 12.2687 4.34483 12.2765L7.62002 14.1646C7.64069 14.1763 7.66652 14.1698 7.67814 14.1504C7.68201 14.144 7.6846 14.1362 7.6846 14.1285L7.67814 10.3406C7.67814 10.3251 7.67039 10.3109 7.65747 10.3031L4.38486 8.41109ZM11.3408 12.2713C11.3537 12.2636 11.3614 12.2507 11.3614 12.2365V8.4408C11.3614 8.41755 11.3434 8.39947 11.3201 8.39947C11.3124 8.39947 11.3059 8.40076 11.2995 8.40464L8.02426 10.3044C8.01134 10.3122 8.00359 10.3251 8.00359 10.3393V14.1272C8.00359 14.1504 8.02296 14.1685 8.04621 14.1672C8.05267 14.1672 8.06042 14.1646 8.06558 14.1621L11.3408 12.2713ZM27.7284 10.3302C27.7284 10.316 27.7206 10.3031 27.709 10.2954L24.4338 8.40205C24.4144 8.39043 24.3899 8.39689 24.3783 8.41626C24.3744 8.42272 24.3718 8.43047 24.3731 8.43692V12.23C24.3731 12.2442 24.3809 12.2571 24.3925 12.2649L27.6741 14.1595C27.6935 14.1711 27.7181 14.1646 27.7297 14.1453C27.7336 14.1388 27.7361 14.1311 27.7348 14.1246L27.7284 10.3302ZM31.444 8.44209C31.444 8.41755 31.4246 8.39689 31.4001 8.3956C31.391 8.3956 31.3833 8.39818 31.3755 8.40205L28.0758 10.3083C28.0616 10.316 28.0538 10.3315 28.0538 10.347V14.1272C28.0538 14.1517 28.0732 14.1724 28.099 14.1724C28.1068 14.1724 28.1145 14.1711 28.121 14.1672L31.4207 12.2636C31.4349 12.2558 31.444 12.2403 31.444 12.2248V8.44209ZM28.1132 17.8802C28.0939 17.8699 28.0693 17.8764 28.059 17.8957C28.0551 17.9022 28.0538 17.9086 28.0538 17.9151V21.4848C28.0538 21.5067 28.0719 21.5248 28.0939 21.5248C28.1003 21.5248 28.1068 21.5235 28.1132 21.5196L31.2141 19.7348C31.2335 19.7245 31.2399 19.6999 31.2296 19.6806C31.2257 19.6741 31.2206 19.6689 31.2141 19.6651L28.1132 17.8802ZM4.55017 19.6573C4.52692 19.6715 4.51918 19.7012 4.53338 19.7245C4.53726 19.7309 4.54371 19.7374 4.55017 19.7413L7.60711 21.5067C7.63035 21.5196 7.66006 21.5119 7.67426 21.4886C7.67814 21.4809 7.68072 21.4731 7.68072 21.4641V17.9319C7.68201 17.9048 7.66006 17.8828 7.63294 17.8828C7.6239 17.8828 7.61615 17.8854 7.6084 17.8893L4.55017 19.6573ZM8.06558 17.888C8.04621 17.8764 8.02038 17.8828 8.00876 17.9035C8.00488 17.9099 8.00359 17.9177 8.00359 17.9241V21.4757C8.00359 21.499 8.02167 21.517 8.04492 21.517C8.05267 21.517 8.05913 21.5158 8.06558 21.5119L11.1458 19.7361C11.1651 19.7245 11.1729 19.6999 11.1626 19.6806C11.1587 19.6741 11.1535 19.6676 11.1458 19.6638L8.06558 17.888ZM27.6651 21.5041C27.6858 21.5158 27.7129 21.5093 27.7245 21.4886C27.7284 21.4822 27.7297 21.4744 27.731 21.4667V17.9332C27.731 17.9086 27.7103 17.8893 27.6871 17.8893C27.6793 17.8893 27.6716 17.8919 27.6651 17.8957L24.6082 19.6625C24.5875 19.6754 24.581 19.7025 24.594 19.7232C24.5978 19.7296 24.603 19.7335 24.6082 19.7374L27.6651 21.5041ZM11.3614 20.0512C11.3614 20.0267 11.3408 20.0073 11.3175 20.0073C11.3098 20.0073 11.302 20.0099 11.2956 20.0138L8.26189 21.765C8.24122 21.7766 8.23348 21.8038 8.2451 21.8244C8.24897 21.8309 8.25414 21.8373 8.26189 21.8412L11.2969 23.595C11.3175 23.6067 11.3447 23.6002 11.3563 23.5795C11.3602 23.5731 11.3627 23.5653 11.3627 23.5563V20.0512H11.3614ZM24.4429 20.006C24.4222 19.9944 24.3951 20.0008 24.3834 20.0215C24.3796 20.028 24.3783 20.0357 24.377 20.0435L24.3705 23.5602C24.3705 23.5847 24.3912 23.6041 24.4144 23.6041C24.4222 23.6041 24.4299 23.6015 24.4364 23.5976L27.4908 21.8451C27.5114 21.8335 27.5192 21.8063 27.5075 21.7857C27.5037 21.7792 27.4985 21.7728 27.4908 21.7689L24.4429 20.006ZM4.32287 23.8365C4.32287 23.852 4.33062 23.8675 4.34483 23.8753L7.61873 25.7647C7.63939 25.7764 7.66652 25.7699 7.67814 25.7492C7.68201 25.7428 7.6846 25.735 7.6846 25.726L7.67943 21.9432C7.67943 21.9277 7.67168 21.9122 7.65747 21.9045L4.38874 20.0138C4.36807 20.0021 4.34095 20.0086 4.32933 20.0293C4.32545 20.0357 4.32416 20.0435 4.32287 20.0512V23.8365ZM31.4517 20.0938C31.4711 20.0848 31.4724 20.0641 31.4543 20.0306C31.4388 20.0008 31.4026 19.9892 31.3729 20.0047C31.3729 20.0047 31.3717 20.0047 31.3704 20.0047L28.1132 21.8877C28.0771 21.9084 28.0538 21.9471 28.0538 21.9897V25.7337C28.0538 25.757 28.0719 25.7764 28.0952 25.7776C28.1029 25.7776 28.1107 25.7764 28.1184 25.7712L31.3574 23.8985C31.413 23.8663 31.4466 23.8081 31.4466 23.7436C31.4401 22.5412 31.4414 21.3246 31.4517 20.0925V20.0938ZM8.0023 25.7247C8.0023 25.7479 8.02038 25.7673 8.04363 25.7686C8.05138 25.7686 8.05913 25.7673 8.06687 25.7621L11.1793 23.9657C11.2 23.9541 11.2065 23.9282 11.1948 23.9076C11.191 23.9011 11.1858 23.896 11.1793 23.8921L8.06817 22.0982C8.0475 22.0866 8.02167 22.0943 8.01005 22.115C8.00617 22.1215 8.00488 22.1279 8.00488 22.1344L8.0023 25.7247ZM24.5681 23.8921C24.5475 23.9037 24.541 23.9295 24.5526 23.9502C24.5565 23.9567 24.5617 23.9618 24.5681 23.9657L27.6664 25.7544C27.6871 25.766 27.7129 25.7596 27.7245 25.7402C27.7284 25.7337 27.731 25.726 27.731 25.7169V22.1382C27.731 22.115 27.7116 22.0956 27.6883 22.0956C27.6806 22.0956 27.6729 22.0982 27.6664 22.1021L24.5681 23.8921ZM21.0656 25.3605C20.0247 24.7445 18.9799 24.14 17.9299 23.5485C17.8873 23.524 17.846 23.524 17.8046 23.5485L14.5772 25.407C14.554 25.4199 14.5462 25.4496 14.5604 25.4729C14.5643 25.4806 14.5708 25.4858 14.5772 25.4896L17.824 27.3623C17.8563 27.3817 17.8899 27.3817 17.9222 27.3623L21.1225 25.5193C21.1483 25.5051 21.1638 25.478 21.1625 25.4483C21.1625 25.4147 21.1444 25.3915 21.1121 25.3799C21.0889 25.3708 21.0734 25.3644 21.0656 25.3605ZM18.0449 31.4692C18.0449 31.4924 18.0655 31.5118 18.0888 31.5105C18.0952 31.5105 18.103 31.5079 18.1081 31.5054L21.3808 29.6198C21.395 29.6121 21.4027 29.5978 21.4027 29.5823V25.7918C21.4027 25.7686 21.3833 25.7492 21.3601 25.7492C21.3523 25.7492 21.3446 25.7518 21.3381 25.7557L18.0655 27.6477C18.0526 27.6555 18.0449 27.6697 18.0449 27.6852V31.4692ZM17.722 27.702C17.722 27.6826 17.7104 27.6645 17.6936 27.6542L14.4416 25.7776C14.4158 25.7621 14.3809 25.7712 14.3654 25.797C14.3603 25.8061 14.3577 25.8164 14.3577 25.8267L14.3667 29.5888C14.3667 29.6082 14.3771 29.6263 14.3938 29.6366L17.6393 31.5067C17.6665 31.5222 17.7 31.5118 17.7155 31.4847C17.7207 31.4769 17.722 31.4679 17.722 31.4589V27.702Z" fill="#00ADEE"/>
<path d="M15.0524 11.7652C15.2236 11.7652 15.3624 11.6264 15.3624 11.4552C15.3624 11.284 15.2236 11.1453 15.0524 11.1453C14.8813 11.1453 14.7425 11.284 14.7425 11.4552C14.7425 11.6264 14.8813 11.7652 15.0524 11.7652Z" fill="#00ADEE"/>
<path d="M20.7002 11.7702C20.8721 11.7702 21.0114 11.6308 21.0114 11.459C21.0114 11.2871 20.8721 11.1477 20.7002 11.1477C20.5283 11.1477 20.3889 11.2871 20.3889 11.459C20.3889 11.6308 20.5283 11.7702 20.7002 11.7702Z" fill="#00ADEE"/>
<path d="M15.3942 11.7891L15.3777 11.8056C15.2051 11.9789 15.2055 12.2594 15.3788 12.4321L16.8645 13.9125C17.0378 14.0852 17.3183 14.0847 17.491 13.9114L17.5074 13.895C17.6801 13.7217 17.6796 13.4412 17.5063 13.2685L16.0206 11.788C15.8473 11.6154 15.5668 11.6158 15.3942 11.7891Z" fill="#00ADEE"/>
<path d="M19.7415 11.7859L18.2237 13.3037C18.0628 13.4645 18.0628 13.7254 18.2237 13.8863L18.2712 13.9338C18.4321 14.0947 18.6929 14.0947 18.8538 13.9338L20.3716 12.416C20.5325 12.2551 20.5325 11.9943 20.3716 11.8334L20.3241 11.7859C20.1632 11.625 19.9023 11.625 19.7415 11.7859Z" fill="#00ADEE"/>
<path d="M14.8433 13.2774C15.0145 13.2774 15.1532 13.1386 15.1532 12.9674C15.1532 12.7962 15.0145 12.6575 14.8433 12.6575C14.6721 12.6575 14.5333 12.7962 14.5333 12.9674C14.5333 13.1386 14.6721 13.2774 14.8433 13.2774Z" fill="#00ADEE"/>
<path d="M20.9003 13.2721C21.0707 13.2721 21.2089 13.1339 21.2089 12.9634C21.2089 12.793 21.0707 12.6548 20.9003 12.6548C20.7298 12.6548 20.5916 12.793 20.5916 12.9634C20.5916 13.1339 20.7298 13.2721 20.9003 13.2721Z" fill="#00ADEE"/>
<path d="M13.3451 13.475C13.517 13.475 13.6564 13.3357 13.6564 13.1638C13.6564 12.9919 13.517 12.8525 13.3451 12.8525C13.1732 12.8525 13.0339 12.9919 13.0339 13.1638C13.0339 13.3357 13.1732 13.475 13.3451 13.475Z" fill="#00ADEE"/>
<path d="M22.4037 13.4775C22.577 13.4775 22.7175 13.337 22.7175 13.1637C22.7175 12.9904 22.577 12.8499 22.4037 12.8499C22.2303 12.8499 22.0898 12.9904 22.0898 13.1637C22.0898 13.337 22.2303 13.4775 22.4037 13.4775Z" fill="#00ADEE"/>
<path d="M15.2006 13.298L15.1806 13.3181C15.0096 13.4891 15.0096 13.7663 15.1806 13.9373L16.0207 14.7774C16.1917 14.9484 16.4689 14.9484 16.6399 14.7774L16.66 14.7573C16.8309 14.5864 16.8309 14.3091 16.66 14.1382L15.8198 13.298C15.6488 13.127 15.3716 13.127 15.2006 13.298Z" fill="#00ADEE"/>
<path d="M19.9193 13.2968L19.0886 14.1246C18.9173 14.2952 18.9169 14.5724 19.0875 14.7437L19.1112 14.7675C19.2819 14.9388 19.5591 14.9393 19.7304 14.7686L20.561 13.9408C20.7323 13.7702 20.7328 13.4929 20.5621 13.3217L20.5384 13.2979C20.3678 13.1266 20.0905 13.1261 19.9193 13.2968Z" fill="#00ADEE"/>
<path d="M13.6946 13.5063L13.6782 13.5227C13.5052 13.6957 13.5052 13.9762 13.6782 14.1492L15.1594 15.6304C15.3324 15.8034 15.6129 15.8034 15.7859 15.6304L15.8023 15.614C15.9753 15.441 15.9753 15.1605 15.8023 14.9875L14.3211 13.5063C14.1481 13.3333 13.8676 13.3333 13.6946 13.5063Z" fill="#00ADEE"/>
<path d="M21.4171 13.503L19.9413 14.9788C19.7684 15.1518 19.7684 15.4322 19.9413 15.6052L19.9596 15.6235C20.1326 15.7965 20.4131 15.7965 20.5861 15.6235L22.0618 14.1477C22.2348 13.9747 22.2348 13.6943 22.0618 13.5213L22.0436 13.503C21.8706 13.33 21.5901 13.33 21.4171 13.503Z" fill="#00ADEE"/>
<path d="M15.1722 16.3578L13.6745 17.8555C13.5051 18.025 13.5051 18.2997 13.6745 18.4692L13.6891 18.4838C13.8586 18.6533 14.1333 18.6533 14.3028 18.4838L15.8005 16.9861C15.9699 16.8167 15.9699 16.5419 15.8005 16.3725L15.7859 16.3578C15.6164 16.1884 15.3417 16.1884 15.1722 16.3578Z" fill="#00ADEE"/>
<path d="M19.9613 16.3546L19.9467 16.3692C19.7732 16.5427 19.7732 16.824 19.9467 16.9975L21.4261 18.4769C21.5996 18.6504 21.8809 18.6504 22.0544 18.4769L22.069 18.4623C22.2425 18.2888 22.2425 18.0075 22.069 17.834L20.5896 16.3546C20.4161 16.1811 20.1348 16.1811 19.9613 16.3546Z" fill="#00ADEE"/>
<path d="M16.012 17.2021L15.1777 18.0335C15.0064 18.2042 15.0059 18.4814 15.1766 18.6526L15.2003 18.6764C15.371 18.8477 15.6482 18.8482 15.8195 18.6775L16.6538 17.8461C16.825 17.6754 16.8255 17.3982 16.6548 17.227L16.6311 17.2032C16.4605 17.0319 16.1833 17.0314 16.012 17.2021Z" fill="#00ADEE"/>
<path d="M19.1115 17.2029L19.0895 17.2247C18.918 17.3951 18.917 17.6723 19.0874 17.8439L19.9228 18.6851C20.0931 18.8567 20.3704 18.8577 20.5419 18.6873L20.5639 18.6654C20.7355 18.4951 20.7365 18.2179 20.5661 18.0463L19.7307 17.205C19.5603 17.0335 19.2831 17.0325 19.1115 17.2029Z" fill="#00ADEE"/>
<path d="M16.8618 18.0632L15.378 19.5419C15.2042 19.7151 15.2037 19.9964 15.3769 20.1702L15.3915 20.1848C15.5647 20.3586 15.846 20.3591 16.0198 20.1859L17.5036 18.7072C17.6774 18.5341 17.6779 18.2528 17.5047 18.079L17.4901 18.0643C17.3169 17.8905 17.0356 17.89 16.8618 18.0632Z" fill="#00ADEE"/>
<path d="M18.2492 18.0631L18.2346 18.0777C18.0611 18.2512 18.0611 18.5325 18.2346 18.706L19.7176 20.1891C19.8911 20.3626 20.1724 20.3626 20.3459 20.1891L20.3605 20.1744C20.534 20.0009 20.534 19.7196 20.3605 19.5462L18.8775 18.0631C18.704 17.8896 18.4227 17.8896 18.2492 18.0631Z" fill="#00ADEE"/>
<path d="M13.3438 19.1214C13.5165 19.1214 13.6564 18.9815 13.6564 18.8089C13.6564 18.6363 13.5165 18.4963 13.3438 18.4963C13.1712 18.4963 13.0313 18.6363 13.0313 18.8089C13.0313 18.9815 13.1712 19.1214 13.3438 19.1214Z" fill="#00ADEE"/>
<path d="M22.4062 19.1239C22.5802 19.1239 22.7213 18.9828 22.7213 18.8088C22.7213 18.6347 22.5802 18.4937 22.4062 18.4937C22.2321 18.4937 22.0911 18.6347 22.0911 18.8088C22.0911 18.9828 22.2321 19.1239 22.4062 19.1239Z" fill="#00ADEE"/>
<path d="M14.8459 19.328C15.0185 19.328 15.1584 19.188 15.1584 19.0154C15.1584 18.8428 15.0185 18.7029 14.8459 18.7029C14.6733 18.7029 14.5333 18.8428 14.5333 19.0154C14.5333 19.188 14.6733 19.328 14.8459 19.328Z" fill="#00ADEE"/>
<path d="M20.8964 19.3242C21.0662 19.3242 21.2038 19.1866 21.2038 19.0168C21.2038 18.8471 21.0662 18.7095 20.8964 18.7095C20.7267 18.7095 20.5891 18.8471 20.5891 19.0168C20.5891 19.1866 20.7267 19.3242 20.8964 19.3242Z" fill="#00ADEE"/>
<path d="M15.0486 20.8326C15.2212 20.8326 15.3612 20.6927 15.3612 20.5201C15.3612 20.3474 15.2212 20.2075 15.0486 20.2075C14.876 20.2075 14.7361 20.3474 14.7361 20.5201C14.7361 20.6927 14.876 20.8326 15.0486 20.8326Z" fill="#00ADEE"/>
<path d="M20.6989 20.8312C20.8708 20.8312 21.0101 20.6919 21.0101 20.52C21.0101 20.3481 20.8708 20.2087 20.6989 20.2087C20.527 20.2087 20.3876 20.3481 20.3876 20.52C20.3876 20.6919 20.527 20.8312 20.6989 20.8312Z" fill="#00ADEE"/>
</svg>
