<svg width="16" height="17" viewBox="0 0 16 17" fill="none" xmlns="http://www.w3.org/2000/svg">
<g clip-path="url(#clip0_815_127)">
<path d="M15.2002 16.5L15.2003 16C15.1207 16 15.0444 15.9684 14.9882 15.9121L14.9881 15.912L11.7919 12.7159C11.7387 12.6595 11.7093 12.5848 11.71 12.5072C11.7106 12.4286 11.7422 12.3533 11.7978 12.2977L11.4443 11.9441L11.7978 12.2977C11.8534 12.2421 11.9287 12.2105 12.0073 12.2098C12.0849 12.2092 12.1597 12.2386 12.216 12.2918L15.4122 15.4879C15.4122 15.4879 15.4122 15.4879 15.4122 15.488C15.4541 15.5299 15.4827 15.5833 15.4942 15.6415C15.5058 15.6997 15.4999 15.76 15.4772 15.8148C15.4545 15.8696 15.416 15.9165 15.3667 15.9494C15.3174 15.9824 15.2594 16 15.2001 16L15.2002 16.5ZM15.2002 16.5C14.988 16.5 14.7846 16.4156 14.6346 16.2656L11.4345 13.0656L15.7658 15.1344C15.8776 15.2463 15.9538 15.3888 15.9846 15.544C16.0155 15.6991 15.9996 15.86 15.9391 16.0061C15.8786 16.1523 15.7761 16.2772 15.6445 16.3651C15.513 16.453 15.3584 16.5 15.2002 16.5ZM6.40058 1.6H6.40008C5.35183 1.6 4.32712 1.91084 3.45553 2.49321C2.58394 3.07558 1.90461 3.90333 1.50347 4.87178C1.10232 5.84022 0.997356 6.90588 1.20186 7.93398C1.40637 8.96208 1.91115 9.90645 2.65237 10.6477C3.3936 11.3889 4.33798 11.8937 5.36609 12.0982C6.3942 12.3027 7.45986 12.1977 8.42832 11.7966C9.39678 11.3954 10.2245 10.7161 10.8069 9.84452C11.3893 8.97294 11.7001 7.94824 11.7001 6.9V6.8995C11.6987 5.49441 11.1399 4.14728 10.1464 3.15374C9.15282 2.16019 7.80567 1.60141 6.40058 1.6ZM6.39952 12.8C5.23279 12.7999 4.09228 12.4539 3.12217 11.8057C2.15191 11.1574 1.39568 10.2359 0.949118 9.15783C0.502557 8.07975 0.385716 6.89345 0.613371 5.74897C0.841026 4.60448 1.40295 3.5532 2.22809 2.72807C3.05323 1.90294 4.10453 1.34102 5.24903 1.11337C6.39353 0.885717 7.57984 1.00256 8.65794 1.44911C9.73604 1.89567 10.6575 2.65189 11.3058 3.62214C11.954 4.59223 12.3 5.73273 12.3002 6.89944C12.2984 8.46382 11.6762 9.96363 10.57 11.0698C9.46375 12.176 7.96392 12.7982 6.39952 12.8Z" fill="#6B7280" stroke="#6B7280"/>
</g>
<defs>
<clipPath id="clip0_815_127">
<rect width="16" height="16" fill="white" transform="translate(0 0.5)"/>
</clipPath>
</defs>
</svg>
