<svg width="127" height="127" viewBox="0 0 127 127" fill="none" xmlns="http://www.w3.org/2000/svg">
<path d="M63.5 126C97.993 126 125.955 98.0178 125.955 63.5C125.955 28.9822 97.993 1 63.5 1C29.007 1 1.04492 28.9822 1.04492 63.5C1.04492 98.0178 29.007 126 63.5 126Z" fill="#F1F3F9" stroke="#D6DCE8" stroke-width="2" stroke-miterlimit="10"/>
<path d="M84.2919 62.7907C84.2919 68.4653 82.008 73.5883 78.4639 77.3714C78.2276 77.7655 77.8338 78.0019 77.44 78.2384C73.6596 81.785 68.5404 83.913 63.0273 83.913C58.6169 83.913 54.4427 82.4943 50.9773 80.1299C49.9535 79.4994 49.0871 78.6324 48.2208 77.8443C44.2829 74.0612 41.9202 68.7018 41.9202 62.7119C41.9202 51.0473 51.4499 41.5107 63.1061 41.5107C74.841 41.5896 84.2919 51.1261 84.2919 62.7907Z" fill="white"/>
<path d="M84.2921 62.7908C84.2921 69.0171 81.6143 74.4553 77.4402 78.3961C73.6598 81.9427 68.5405 84.0707 63.0274 84.0707C58.617 84.0707 54.4428 82.6521 50.9775 80.2876C45.3857 76.5045 41.8416 70.1205 41.8416 62.8696C41.8416 51.205 51.3713 41.6685 63.0274 41.6685C74.6836 41.6685 84.2921 51.1262 84.2921 62.7908Z" fill="#F1F3F9" stroke="#D6DCE8" stroke-width="2" stroke-miterlimit="10"/>
<path d="M78.4645 77.3713C78.2282 77.7654 77.8344 78.0018 77.4406 78.2382C73.6603 81.7849 68.541 83.9129 63.0279 83.9129C58.6175 83.9129 54.4433 82.4942 50.978 80.1298C49.9541 79.4993 49.0878 78.6323 48.2214 77.8442C48.694 77.2137 49.4816 76.8196 51.1355 76.1891L51.7655 75.9526C53.0257 75.4797 54.8371 74.8492 57.1211 73.8246C57.5149 73.667 57.7512 73.4305 57.9874 73.1941C58.1449 73.0365 58.2237 72.9577 58.2237 72.7212C58.3812 72.4848 58.46 72.0907 58.46 71.8543V67.5195C58.3025 67.3618 58.3025 67.3618 58.2237 67.283C57.8299 66.8101 57.5936 66.1796 57.5936 65.3915L57.3574 65.2338C56.2547 65.4703 56.3335 64.3669 56.0972 62.0812C55.9397 61.2143 56.0972 60.9778 56.5698 60.8202L56.9636 60.3473C56.176 58.5346 55.861 56.9583 55.861 55.6184C55.861 53.4905 56.7273 52.0718 57.9874 51.4413C57.1998 49.9438 57.1998 49.3921 57.1998 49.3921C57.1998 49.3921 61.6103 50.1802 63.1854 49.865C65.0756 49.4709 68.1472 50.0226 69.2498 52.5447C71.14 53.3328 71.7701 54.4362 72.0063 55.6973C72.2426 57.7464 71.14 59.8744 70.9037 60.7414V60.899C71.14 61.0567 71.2975 61.2931 71.14 62.1601C70.9037 64.2881 70.9037 65.5491 69.8799 65.3126L68.856 67.1254C68.856 67.3618 68.856 67.3618 68.6985 67.5195C68.6985 67.9135 68.6985 68.544 68.6985 71.9331C68.6985 72.3271 68.856 72.8 69.0923 73.0365C69.2498 73.1941 69.2498 73.2729 69.3286 73.2729C69.5648 73.5094 69.8011 73.7458 70.1161 73.7458C72.6364 74.7704 74.4478 75.5585 75.7867 76.0314C77.1256 76.5831 77.9919 76.9772 78.4645 77.3713Z" fill="white"/>
<path d="M78.4645 77.3715C78.2282 77.7656 77.8344 78.002 77.4406 78.2385C73.6603 81.7851 68.541 83.9131 63.0279 83.9131C58.6175 83.9131 54.4433 82.4945 50.978 80.13C49.9541 79.4995 49.0878 78.6325 48.2214 77.8444C48.694 77.2139 49.4816 76.8198 51.1355 76.1893L51.7655 75.9528C53.0257 75.48 54.8371 74.8494 57.1211 73.8249C57.5149 73.6672 57.7512 73.4308 57.9874 73.1943C59.2476 75.0071 61.2953 76.1105 63.658 76.1105C65.942 76.1105 67.9897 75.0071 69.2498 73.352C69.4861 73.5884 69.7224 73.8249 70.0374 73.8249C72.5576 74.8494 74.3691 75.6376 75.708 76.1105C77.1256 76.5834 77.9919 76.9774 78.4645 77.3715Z" fill="#D6DCE8"/>
<path d="M70.7457 60.584C70.9032 60.1111 70.5881 59.3229 70.3519 58.9289C70.3519 58.7712 70.1943 58.7712 70.1943 58.6924C69.328 56.8797 67.4378 56.2492 65.6264 56.1703C60.9009 55.9339 60.5859 56.8009 59.1682 55.5398C59.6408 56.1703 59.6408 57.3526 58.932 58.6136C58.4594 59.4806 57.5143 60.0323 56.648 60.2687C54.5215 55.461 55.6241 52.3872 57.6718 51.3627C56.8843 49.8652 56.8843 49.3135 56.8843 49.3135C56.8843 49.3135 61.2947 50.1016 62.8699 49.7864C64.76 49.3923 67.8316 49.944 68.9342 52.4661C70.8244 53.2542 71.4545 54.3576 71.6907 55.6186C72.1633 57.589 70.9819 59.717 70.7457 60.584Z" fill="#AAB2C5"/>
<path d="M58.6171 71.7755V67.4407C58.4596 67.283 58.4596 67.283 58.3809 67.2042V66.9678C58.6171 67.3618 58.8534 67.7559 59.2472 67.9924L62.6338 70.4356C63.4214 71.0661 64.524 71.0661 65.3116 70.4356L68.4619 67.6771C68.6194 67.5195 68.6981 67.5195 68.8557 67.4407C68.8557 67.8347 68.8557 68.4653 68.8557 71.8543C68.8557 72.0907 68.8557 72.2484 69.0132 72.4848H58.6171C58.4596 72.1695 58.6171 72.0119 58.6171 71.7755Z" fill="url(#paint0_linear_665_35131)"/>
<g opacity="0.6">
<mask id="mask0_665_35131" style="mask-type:alpha" maskUnits="userSpaceOnUse" x="0" y="0" width="127" height="127">
<path d="M63.5 126C97.993 126 125.955 98.0178 125.955 63.5C125.955 28.9822 97.993 1 63.5 1C29.007 1 1.04492 28.9822 1.04492 63.5C1.04492 98.0178 29.007 126 63.5 126Z" fill="#F1F3F9" stroke="#D6DCE8" stroke-width="2" stroke-miterlimit="10"/>
</mask>
<g mask="url(#mask0_665_35131)">
<path d="M38.1396 30.7921C38.1396 35.521 36.1706 39.6982 32.9416 42.6931C32.0752 43.4813 31.1301 44.1906 30.0275 44.8211C27.6648 46.2398 24.8295 47.0279 21.8367 47.0279C18.8439 47.0279 16.0086 46.2398 13.6459 44.8211C13.2521 44.5847 12.937 44.427 12.5433 44.1118C8.36908 41.1956 5.61255 36.3091 5.61255 30.7921C5.61255 21.8072 12.937 14.5563 21.8367 14.5563C30.8939 14.4775 38.1396 21.8072 38.1396 30.7921Z" fill="#F1F3F9" stroke="#D6DCE8" stroke-width="2" stroke-miterlimit="10"/>
<path d="M18.6078 34.4176C18.8441 34.6541 19.0016 34.8905 19.3166 35.127C19.5529 35.3634 19.7104 35.4422 19.9467 35.5999C20.0254 35.6787 20.2617 35.8363 20.3405 35.9151C20.3405 35.9151 20.4192 35.9151 20.4192 35.9939L20.498 36.0728V37.4914C20.498 37.4914 20.498 37.4914 20.4192 37.4126C20.3405 37.3338 20.1042 37.1762 20.0254 37.0973C19.7892 37.0185 19.6316 36.7821 19.3954 36.7033C19.3166 36.7033 19.3166 36.6245 19.1591 36.6245C18.4503 36.2304 17.899 35.8363 17.899 35.2846C17.9777 35.127 18.214 34.8117 18.6078 34.4176ZM32.4692 42.1415C31.8391 40.8016 31.0515 39.6194 29.6339 38.9101C28.9251 38.5948 28.1375 38.2796 27.3499 38.2796C27.1136 38.2796 26.8774 38.2796 26.6411 38.2796C26.5623 38.2796 26.4048 38.2796 26.3261 38.2796C25.2235 38.2007 25.1447 37.9643 25.1447 37.9643V35.6787C25.8535 35.0482 26.5623 34.3388 27.1136 33.7083C27.5862 32.999 27.98 32.2108 28.2163 31.1862C29.0826 30.9498 29.7127 30.1617 29.6339 29.2159C29.6339 28.8218 29.3189 28.4277 29.3189 28.0337C29.3189 27.7972 29.3189 27.6396 29.3189 27.4031C29.3189 27.3243 29.3189 27.0879 29.3189 27.0091C29.3189 26.9303 29.3189 26.6938 29.3189 26.615C29.2401 25.9057 29.0038 25.1963 28.61 24.4082C27.4287 22.2014 25.2235 20.7827 22.6244 20.7827C22.1519 20.7827 21.6006 20.8615 21.128 21.0192C20.2617 21.2556 19.3166 21.6497 18.6078 22.2014C18.529 22.2802 18.2928 22.4378 18.214 22.5955L18.1352 22.6743C17.3477 23.4624 16.6388 24.4082 16.3238 25.5116C15.93 26.615 15.93 27.7184 16.0088 28.8218C16.0088 28.8218 16.0088 28.8218 16.0088 28.9006V28.9794C16.0088 29.2159 16.0875 29.2159 16.0088 29.2947C16.0088 29.3735 15.93 29.3735 15.93 29.5311C15.6937 29.8464 15.615 30.2405 15.8513 30.871C16.245 31.8956 16.8751 31.7379 17.5839 32.2897C17.5839 32.2897 17.5052 32.2896 17.5052 32.3685L16.7964 32.5261C13.5673 33.5507 12.4647 36.2304 13.8823 37.9643C14.3549 38.5948 15.1424 39.0677 16.4026 39.383C16.0875 39.383 15.7725 39.6194 15.615 39.777C14.1973 40.8804 13.331 42.6144 13.0947 44.1907C13.0947 44.2695 13.0947 44.4271 13.0947 44.5059C13.4885 44.7424 13.8035 44.9788 14.1973 45.2152L29.8702 44.8212C30.894 44.1907 31.2878 43.7178 32.2329 42.9296C32.0754 42.3779 32.6267 42.2203 32.4692 42.1415Z" fill="white"/>
<path d="M32.9415 42.6933C32.0752 43.4814 31.1301 44.1907 30.0275 44.8213C27.6647 46.2399 24.8295 47.0281 21.8367 47.0281C18.8438 47.0281 16.0086 46.2399 13.6458 44.8213C13.252 44.5848 12.937 44.4272 12.5432 44.1119C12.5432 44.0331 12.5432 43.8755 12.5432 43.7967C12.7795 42.2204 13.6458 40.4865 15.0635 39.383C15.2997 39.1466 15.536 39.0678 15.851 38.989C14.6697 38.7525 13.8821 38.2796 13.3308 37.5703H17.1112C18.2138 39.0678 19.9465 39.9348 21.9154 39.9348C23.6481 39.9348 25.1445 39.2254 26.2471 38.122C26.3259 38.122 26.4834 38.122 26.5621 38.122C26.7984 38.122 26.9559 38.122 27.271 38.122C28.0585 38.122 28.8461 38.3585 29.5549 38.7525C30.9726 39.4619 31.9177 40.6441 32.6265 42.0627C32.8628 42.2992 32.8628 42.5356 32.9415 42.6933Z" fill="#D6DCE8"/>
<path d="M29.3979 27.0087C28.2166 27.4028 26.7989 27.6392 25.5388 27.4816C23.4123 27.2451 21.4434 26.457 19.8682 25.1171C19.3957 26.6146 18.0568 27.718 16.5604 28.4274C16.3241 28.5062 16.1666 28.6638 15.9303 28.6638C15.9303 28.6638 15.9303 28.6638 15.9303 28.585C15.8516 27.4816 15.8516 26.3782 16.2453 25.2748C16.5604 24.1714 17.2692 23.3044 18.0568 22.4375L18.1355 22.3586C18.2143 22.2798 18.4506 22.1222 18.5293 21.9646C19.2381 21.334 20.1045 20.94 21.0496 20.7823C21.5221 20.7035 22.0734 20.5459 22.546 20.5459C25.145 20.5459 27.429 21.9646 28.5316 24.1714C28.9254 24.9595 29.1617 25.7477 29.2404 26.3782C29.3979 26.6934 29.3979 26.8511 29.3979 27.0087Z" fill="#AAB2C5"/>
<path d="M21.3644 41.8262C20.7344 42.5356 19.7893 42.5356 18.8442 42.5356C19.7105 41.6686 19.238 38.7525 16.0089 39.0677C11.5984 38.2796 11.9922 33.6295 16.4027 32.2897L17.1115 32.0532L17.1902 32.132C17.5053 32.999 17.9778 33.866 18.4504 34.4177C16.6389 35.9151 19.1592 36.3092 20.3406 37.4914C21.4432 38.1219 22.3883 40.5652 21.3644 41.8262Z" fill="#AAB2C5"/>
<path d="M121.466 34.1021C121.466 38.9097 119.497 43.2446 116.504 46.476C116.268 46.7912 115.953 47.0277 115.638 47.2641C112.408 50.2591 108.156 52.0718 103.43 52.0718C99.6497 52.0718 96.1056 50.8896 93.2703 48.8404C92.4039 48.2887 91.6951 47.5794 90.9075 46.87C87.5997 43.6386 85.552 39.1462 85.552 34.1021C85.552 24.2502 93.5853 16.1323 103.43 16.1323C113.432 16.1323 121.466 24.2502 121.466 34.1021Z" fill="#D6DCE8"/>
<path d="M121.466 34.1019C121.466 39.3824 119.182 43.9537 115.638 47.3427C112.408 50.3377 108.156 52.1504 103.43 52.1504C99.6497 52.1504 96.1056 50.9682 93.2703 48.919C88.5448 45.6876 85.552 40.3282 85.552 34.1807C85.552 24.3288 93.5853 16.2109 103.43 16.2109C113.275 16.2898 121.466 24.25 121.466 34.1019Z" fill="#F1F3F9" stroke="#D6DCE8" stroke-width="2" stroke-miterlimit="10"/>
<path d="M116.504 46.4761C116.268 46.7914 115.953 47.0278 115.637 47.2643C112.408 50.2592 108.155 52.072 103.43 52.072C99.6496 52.072 96.1055 50.8897 93.2702 48.8406C92.4039 48.2889 91.6951 47.5795 90.9075 46.8702C91.3013 46.3185 92.0101 46.0032 93.349 45.4515L93.9003 45.2151C95.0029 44.821 96.4993 44.2693 98.3895 43.4024C98.7045 43.3235 98.9408 43.0871 99.1771 42.8507C99.2558 42.7718 99.4133 42.6142 99.4133 42.4566C99.4921 42.2201 99.6496 41.9049 99.6496 41.6684V38.043C99.5708 37.9642 99.5708 37.9642 99.4133 37.8065C99.0983 37.4124 98.862 36.8607 98.862 36.2302L98.6258 36.1514C97.6807 36.3879 97.7594 35.3633 97.5231 33.4717C97.4444 32.6836 97.5231 32.5259 97.9169 32.3683L98.232 31.9742C97.6019 30.4768 97.2869 29.0581 97.2869 28.0335C97.2869 26.2208 98.0744 25.0386 99.0983 24.4869C98.4682 23.2258 98.4682 22.7529 98.4682 22.7529C98.4682 22.7529 102.249 23.3834 103.509 23.147C105.084 22.8317 107.683 23.2258 108.628 25.4326C110.203 26.0631 110.754 27.0089 110.991 28.1123C111.227 29.8462 110.203 31.659 110.046 32.3683V32.5259C110.282 32.6048 110.361 32.8412 110.282 33.6293C110.046 35.4421 110.046 36.5455 109.179 36.309L108.313 37.8065C108.313 38.043 108.313 38.043 108.234 38.1218C108.234 38.437 108.234 38.9887 108.234 41.9049C108.234 42.2201 108.313 42.693 108.549 42.8507C108.628 42.9295 108.628 43.0871 108.786 43.0871C109.022 43.3235 109.179 43.4812 109.416 43.4812C111.542 44.3481 113.038 44.9787 114.22 45.4515C115.322 45.8456 116.11 46.1609 116.504 46.4761Z" fill="white"/>
<path d="M116.504 46.4761C116.268 46.7913 115.953 47.0278 115.637 47.2642C112.408 50.2592 108.155 52.0719 103.43 52.0719C99.6496 52.0719 96.1055 50.8897 93.2702 48.8405C92.4039 48.2888 91.6951 47.5795 90.9075 46.8701C91.3013 46.3184 92.0101 46.0032 93.349 45.4515L93.9003 45.215C95.0029 44.821 96.4993 44.2692 98.3895 43.4023C98.7045 43.3235 98.9408 43.087 99.1771 42.8506C100.28 44.3481 101.934 45.2938 103.981 45.2938C105.95 45.2938 107.604 44.3481 108.707 42.9294C108.943 43.1658 109.101 43.3235 109.337 43.3235C111.463 44.1904 112.96 44.821 114.141 45.2938C115.322 45.8455 116.11 46.1608 116.504 46.4761Z" fill="#D6DCE8"/>
<path d="M109.967 32.2895C110.046 31.8954 109.889 31.1861 109.652 30.8708C109.652 30.792 109.574 30.792 109.574 30.6344C108.786 29.1369 107.211 28.5852 105.714 28.5064C101.777 28.27 101.461 29.0581 100.28 27.9547C100.674 28.5064 100.674 29.4522 100.044 30.5556C99.6501 31.3437 98.8625 31.7378 98.0749 31.9742C96.2635 27.8759 97.2086 25.3538 98.9412 24.4869C98.3112 23.2258 98.3112 22.7529 98.3112 22.7529C98.3112 22.7529 102.092 23.3834 103.352 23.147C104.927 22.8317 107.526 23.2258 108.471 25.4326C110.046 26.0631 110.597 27.0089 110.834 28.1123C111.149 29.6886 110.204 31.5014 109.967 32.2895Z" fill="#AAB2C5"/>
<path d="M52.5529 103.538C52.5529 108.03 50.7415 112.05 47.985 115.045C47.7487 115.36 47.5124 115.518 47.1974 115.754C44.2046 118.592 40.1879 120.247 35.7775 120.247C32.3121 120.247 29.0043 119.143 26.2478 117.252C25.4602 116.779 24.7514 116.069 24.0426 115.439C20.971 112.444 19.0808 108.267 19.0808 103.538C19.0808 94.3166 26.5628 86.8292 35.7775 86.8292C45.0709 86.7504 52.5529 94.3166 52.5529 103.538Z" fill="#D6DCE8"/>
<path d="M52.5526 103.538C52.5526 108.425 50.4261 112.759 47.1183 115.833C44.1255 118.67 40.1088 120.326 35.6984 120.326C32.233 120.326 28.9252 119.222 26.1687 117.331C21.7582 114.336 19.0017 109.292 19.0017 103.617C19.0017 94.3956 26.4837 86.9082 35.6984 86.9082C44.9918 86.9082 52.5526 94.3168 52.5526 103.538Z" fill="#F1F3F9" stroke="#D6DCE8" stroke-width="2" stroke-miterlimit="10"/>
<path d="M47.9849 115.045C47.7486 115.36 47.5124 115.518 47.1973 115.754C44.2045 118.592 40.1879 120.247 35.7774 120.247C32.3121 120.247 29.0042 119.143 26.2477 117.252C25.4601 116.779 24.7513 116.07 24.0425 115.439C24.4363 114.966 25.0663 114.651 26.3265 114.099L26.799 113.863C27.8229 113.469 29.1617 112.996 30.9732 112.129C31.2882 112.05 31.4457 111.814 31.682 111.656C31.7608 111.577 31.9183 111.42 31.9183 111.262C31.997 111.026 32.1546 110.789 32.1546 110.553V107.164C32.0758 107.085 32.0758 107.085 31.9183 106.927C31.6032 106.533 31.4457 106.06 31.4457 105.43L31.2095 105.351C30.3431 105.587 30.4219 104.642 30.1856 102.829C30.1068 102.119 30.1856 101.962 30.5794 101.804L30.8944 101.41C30.2644 99.9915 30.0281 98.7304 30.0281 97.7058C30.0281 95.9719 30.7369 94.8685 31.7608 94.3956C31.1307 93.2134 31.1307 92.8193 31.1307 92.8193C31.1307 92.8193 34.596 93.4499 35.8562 93.2134C37.3526 92.8982 39.7153 93.2922 40.6604 95.3414C42.1568 95.9719 42.6294 96.8389 42.8656 97.8635C43.1019 99.4398 42.1568 101.174 41.9993 101.883V101.962C42.2356 102.041 42.3143 102.277 42.2356 102.986C41.9993 104.72 41.9993 105.666 41.2117 105.508L40.4241 106.927C40.4241 107.164 40.4241 107.164 40.3454 107.242C40.3454 107.558 40.3454 108.031 40.3454 110.71C40.3454 111.026 40.4241 111.42 40.6604 111.577C40.7392 111.656 40.7392 111.814 40.8967 111.814C41.133 112.05 41.2905 112.208 41.5267 112.208C43.4957 112.996 44.9133 113.626 46.016 114.02C46.8823 114.415 47.5911 114.73 47.9849 115.045Z" fill="white"/>
<path d="M47.9849 115.045C47.7486 115.36 47.5124 115.518 47.1973 115.754C44.2045 118.591 40.1879 120.247 35.7774 120.247C32.3121 120.247 29.0042 119.143 26.2477 117.252C25.4601 116.779 24.7513 116.069 24.0425 115.439C24.4363 114.966 25.0663 114.651 26.3265 114.099L26.799 113.863C27.8229 113.469 29.1617 112.996 30.9732 112.129C31.2882 112.05 31.4457 111.813 31.682 111.656C32.7059 113.074 34.281 113.941 36.1712 113.941C37.9826 113.941 39.5578 113.074 40.5817 111.735C40.8179 111.971 40.9754 112.129 41.2117 112.129C43.1807 112.917 44.5983 113.547 45.7009 113.941C46.8823 114.414 47.5911 114.73 47.9849 115.045Z" fill="#D6DCE8"/>
<path d="M41.8415 101.804C41.9202 101.41 41.7627 100.779 41.5264 100.464C41.5264 100.385 41.4477 100.385 41.4477 100.228C40.7389 98.809 39.2425 98.3362 37.8248 98.2573C34.1232 98.0209 33.8082 98.7302 32.7056 97.7845C33.0993 98.2573 33.0993 99.2031 32.4693 100.149C32.0755 100.858 31.3667 101.252 30.6578 101.489C28.9252 97.7056 29.8703 95.2624 31.4454 94.4742C30.8154 93.292 30.8154 92.8979 30.8154 92.8979C30.8154 92.8979 34.2807 93.5285 35.5408 93.292C37.0372 92.9768 39.4 93.3708 40.3451 95.42C41.8415 96.0505 42.314 96.9175 42.5503 97.9421C42.9441 99.3607 42.0778 101.095 41.8415 101.804Z" fill="#AAB2C5"/>
</g>
</g>
<path d="M63.5 126C97.993 126 125.955 98.0178 125.955 63.5C125.955 28.9822 97.993 1 63.5 1C29.007 1 1.04492 28.9822 1.04492 63.5C1.04492 98.0178 29.007 126 63.5 126Z" stroke="#D6DCE8" stroke-width="2" stroke-miterlimit="10"/>
<path d="M115.032 106.341L99.4374 90.5835C97.8379 88.9673 95.5387 88.3613 93.4395 88.7653L89.6408 84.9269C100.437 71.3916 99.5374 51.4926 87.1417 38.9673C76.7453 28.4623 61.2506 26.1391 48.655 32.0986C45.1562 33.7148 41.8574 36.038 38.8584 38.9673C35.1597 42.6037 32.5606 46.9471 30.9612 51.5936C30.1614 53.8158 29.5616 56.038 29.2617 58.3613C27.7623 68.7653 30.9612 79.7754 38.8584 87.7552C39.0584 87.9572 39.1583 88.0582 39.3583 88.2603C45.956 94.7249 54.453 97.8562 63.05 97.8562C70.6474 97.8562 78.2447 95.331 84.4426 90.2804L88.2413 94.1188C87.8414 96.24 88.4412 98.5633 90.0407 100.179L105.535 115.937C108.134 118.563 112.333 118.563 114.932 115.937C117.631 113.311 117.631 108.967 115.032 106.341ZM82.2434 82.8057C81.0438 84.0178 79.7442 85.0279 78.4447 86.038C77.1451 86.9471 75.8456 87.6542 74.546 88.2603C67.3485 91.6946 58.8515 91.6946 51.654 88.2603C48.8549 86.9471 46.2559 85.1289 43.9567 82.8057C37.3589 76.139 34.8598 66.9471 36.4593 58.3613C36.8591 56.038 37.5589 53.7148 38.6585 51.5936C39.958 48.8663 41.7574 46.2401 43.9567 44.0178C45.4561 42.5027 47.0556 41.1896 48.755 40.1795C53.1535 37.3512 58.1517 36.038 63.15 36.038C70.1476 36.038 77.0452 38.6643 82.3433 44.0178C92.8397 54.7249 92.8397 72.0986 82.2434 82.8057Z" fill="#D6DCE8" stroke="#AAB2C5" stroke-width="2" stroke-miterlimit="10"/>
<defs>
<linearGradient id="paint0_linear_665_35131" x1="63.6765" y1="72.313" x2="63.6765" y2="69.4232" gradientUnits="userSpaceOnUse">
<stop stop-color="white"/>
<stop offset="0.9913" stop-color="#D6DEEA"/>
</linearGradient>
</defs>
</svg>
