<svg width="134" height="128" viewBox="0 0 134 128" fill="none" xmlns="http://www.w3.org/2000/svg">
<path d="M63.626 126.5C98.1189 126.5 126.081 98.5178 126.081 64C126.081 29.4822 98.1189 1.5 63.626 1.5C29.133 1.5 1.1709 29.4822 1.1709 64C1.1709 98.5178 29.133 126.5 63.626 126.5Z" fill="white" stroke="#D6DCE8" stroke-width="2" stroke-miterlimit="10"/>
<mask id="mask0_665_17202" style="mask-type:alpha" maskUnits="userSpaceOnUse" x="0" y="0" width="128" height="128">
<path d="M63.626 126.5C98.1189 126.5 126.081 98.5178 126.081 64C126.081 29.4822 98.1189 1.5 63.626 1.5C29.133 1.5 1.1709 29.4822 1.1709 64C1.1709 98.5178 29.133 126.5 63.626 126.5Z" fill="white" stroke="#D6DCE8" stroke-width="2" stroke-miterlimit="10"/>
</mask>
<g mask="url(#mask0_665_17202)">
<rect x="9.56372" y="53.5098" width="111.546" height="20.6989" rx="3" fill="#D6DCE8" stroke="#AAB2C5" stroke-width="2"/>
<path opacity="0.6" d="M72.1296 41.745H0.646184C-0.278741 41.745 -1.07153 40.9516 -1.07153 40.026V34.6047C-1.07153 33.6791 -0.278741 32.8857 0.646184 32.8857H72.1296C73.0546 32.8857 73.8474 33.6791 73.8474 34.6047V40.026C73.8474 40.9516 73.0546 41.745 72.1296 41.745Z" fill="#D6DCE8"/>
<path opacity="0.6" d="M128.154 41.745H82.8329C81.908 41.745 81.1152 40.9516 81.1152 40.026V34.6047C81.1152 33.6791 81.908 32.8857 82.8329 32.8857H128.154C129.079 32.8857 129.872 33.6791 129.872 34.6047V40.026C129.872 40.9516 129.079 41.745 128.154 41.745Z" fill="#D6DCE8"/>
<path opacity="0.6" d="M124.983 68.4539H209.283C210.208 68.4539 211.001 67.6606 211.001 66.735V61.3137C211.001 60.3881 210.208 59.5947 209.283 59.5947H124.983C124.058 59.5947 123.265 60.3881 123.265 61.3137V66.735C123.265 67.6606 124.058 68.4539 124.983 68.4539Z" fill="#D6DCE8"/>
<path d="M59.3127 68.4539H112.958C113.883 68.4539 114.676 67.6606 114.676 66.735V61.3137C114.676 60.3881 113.883 59.5947 112.958 59.5947H59.3127C58.3878 59.5947 57.595 60.3881 57.595 61.3137V66.735C57.7271 67.6606 58.3878 68.4539 59.3127 68.4539Z" fill="#AAB2C5"/>
<path d="M16.7675 68.4539H47.9507C48.8756 68.4539 49.6684 67.6606 49.6684 66.735V61.3137C49.6684 60.3881 48.8756 59.5947 47.9507 59.5947H16.7675C15.8426 59.5947 15.0498 60.3881 15.0498 61.3137V66.735C15.0498 67.6606 15.7105 68.4539 16.7675 68.4539Z" fill="#AAB2C5"/>
<path opacity="0.6" d="M84.9466 85.6436H-2.9212C-3.84612 85.6436 -4.63892 86.4369 -4.63892 87.3625V92.7838C-4.63892 93.7094 -3.84612 94.5028 -2.9212 94.5028H85.0788C86.0037 94.5028 86.7965 93.7094 86.7965 92.7838V87.3625C86.6643 86.4369 85.8716 85.6436 84.9466 85.6436Z" fill="#D6DCE8"/>
<path opacity="0.6" d="M84.9466 8.24683H-2.9212C-3.84612 8.24683 -4.63892 9.04019 -4.63892 9.96578V15.3871C-4.63892 16.3127 -3.84612 17.106 -2.9212 17.106H85.0788C86.0037 17.106 86.7965 16.3127 86.7965 15.3871V9.96578C86.6643 9.04019 85.8716 8.24683 84.9466 8.24683Z" fill="#D6DCE8"/>
<path opacity="0.6" d="M153.392 85.6436H97.236C96.3111 85.6436 95.5183 86.4369 95.5183 87.3625V92.7838C95.5183 93.7094 96.3111 94.5028 97.236 94.5028H153.26C154.185 94.5028 154.978 93.7094 154.978 92.7838V87.3625C154.978 86.4369 154.317 85.6436 153.392 85.6436Z" fill="#D6DCE8"/>
<path opacity="0.6" d="M153.392 8.24683H97.236C96.3111 8.24683 95.5183 9.04019 95.5183 9.96578V15.3871C95.5183 16.3127 96.3111 17.106 97.236 17.106H153.26C154.185 17.106 154.978 16.3127 154.978 15.3871V9.96578C154.978 9.04019 154.317 8.24683 153.392 8.24683Z" fill="#D6DCE8"/>
<path opacity="0.6" d="M80.9826 110.392H137.139C138.064 110.392 138.856 111.185 138.856 112.111V117.532C138.856 118.458 138.064 119.251 137.139 119.251H81.1147C80.1898 119.251 79.397 118.458 79.397 117.532V112.111C79.397 111.185 80.0577 110.392 80.9826 110.392Z" fill="#D6DCE8"/>
<path opacity="0.6" d="M-2.92068 110.392H69.2234C70.1484 110.392 70.9412 111.185 70.9412 112.111V117.532C70.9412 118.458 70.1484 119.251 69.2234 119.251H-2.92068C-3.8456 119.251 -4.63837 118.458 -4.63837 117.532V112.111C-4.63837 111.185 -3.8456 110.392 -2.92068 110.392Z" fill="#D6DCE8"/>
</g>
<path d="M126.604 72.2846L104.127 60.92C103.022 60.3514 101.646 61.3779 101.813 62.6463L106.279 87.4485C106.463 88.6106 108.05 88.9123 108.722 87.8544L112.103 83.3816C112.551 82.6763 113.594 82.6406 114.039 83.2374L119.775 90.9362C120.13 91.4137 120.772 91.4918 121.273 91.1186L125.838 87.7125C126.338 87.3393 126.447 86.7012 126.091 86.2238L120.356 78.5249C119.866 77.8684 120.243 76.9374 121.046 76.7095L126.295 74.7434C127.438 74.4483 127.664 72.7935 126.604 72.2846Z" fill="#D6DCE8" stroke="#AAB2C5" stroke-width="2" stroke-miterlimit="10"/>
</svg>
